  0
SECTION
  2
HEADER
  9
$ACADVER
  1
AC1009
  9
$EXTMIN
 10
0.0
 20
0.0
 30
0.0
  9
$EXTMAX
 10
1000.0
 20
1000.0
 30
0.0
  9
$FILLMODE
 70
 0
  9
$SPLFRAME
 70
 1
  0
ENDSEC
  0
SECTION
  2
TABLES
  0
TABLE
  2
LAYER
 70
1
  0
LAYER
  2
0
 70
     0
 62
     7
  6
CONTINUOUS
  0
ENDTAB
  0
ENDSEC
  0
SECTION
  2
ENTITIES
  0
LINE
  8
0
 62
     0
 10
0.0950846
 20
76.4575
 30
0.0
 11
238.37
 21
76.4575
 31
0.0
  0
LINE
  8
0
 62
     0
 10
238.37
 20
76.4575
 30
0.0
 11
238.37
 21
0.107487
 31
0.0
  0
LINE
  8
0
 62
     0
 10
238.37
 20
0.107487
 30
0.0
 11
0.0950846
 21
0.107487
 31
0.0
  0
LINE
  8
0
 62
     0
 10
0.0950846
 20
0.107487
 30
0.0
 11
0.0950846
 21
76.4575
 31
0.0
  0
LINE
  8
0
 62
     0
 10
81.3513
 20
16.6329
 30
0.0
 11
81.3513
 21
2.78364
 31
0.0
  0
LINE
  8
0
 62
     0
 10
81.3513
 20
2.78364
 30
0.0
 11
84.3248
 21
2.78364
 31
0.0
  0
LINE
  8
0
 62
     0
 10
84.3248
 20
2.78364
 30
0.0
 11
84.3248
 21
1.8135
 31
0.0
  0
LINE
  8
0
 62
     0
 10
84.3248
 20
1.8135
 30
0.0
 11
87.4751
 21
1.8135
 31
0.0
  0
LINE
  8
0
 62
     0
 10
87.4751
 20
1.8135
 30
0.0
 11
87.4751
 21
2.78364
 31
0.0
  0
LINE
  8
0
 62
     0
 10
87.4751
 20
2.78364
 30
0.0
 11
104.725
 21
2.78364
 31
0.0
  0
LINE
  8
0
 62
     0
 10
104.725
 20
2.78364
 30
0.0
 11
104.725
 21
3.01377
 31
0.0
  0
LINE
  8
0
 62
     0
 10
104.725
 20
3.01377
 30
0.0
 11
105.756
 21
3.01377
 31
0.0
  0
LINE
  8
0
 62
     0
 10
105.756
 20
3.01377
 30
0.0
 11
105.756
 21
1.8135
 31
0.0
  0
LINE
  8
0
 62
     0
 10
105.756
 20
1.8135
 30
0.0
 11
111.275
 21
1.8135
 31
0.0
  0
LINE
  8
0
 62
     0
 10
111.275
 20
1.8135
 30
0.0
 11
111.275
 21
3.01377
 31
0.0
  0
LINE
  8
0
 62
     0
 10
111.275
 20
3.01377
 30
0.0
 11
112.306
 21
3.01377
 31
0.0
  0
LINE
  8
0
 62
     0
 10
112.306
 20
3.01377
 30
0.0
 11
112.306
 21
2.78364
 31
0.0
  0
LINE
  8
0
 62
     0
 10
112.306
 20
2.78364
 30
0.0
 11
126.157
 21
2.78364
 31
0.0
  0
LINE
  8
0
 62
     0
 10
126.157
 20
2.78364
 30
0.0
 11
126.157
 21
3.01377
 31
0.0
  0
LINE
  8
0
 62
     0
 10
126.157
 20
3.01377
 30
0.0
 11
127.187
 21
3.01377
 31
0.0
  0
LINE
  8
0
 62
     0
 10
127.187
 20
3.01377
 30
0.0
 11
127.187
 21
1.8135
 31
0.0
  0
LINE
  8
0
 62
     0
 10
127.187
 20
1.8135
 30
0.0
 11
132.707
 21
1.8135
 31
0.0
  0
LINE
  8
0
 62
     0
 10
132.707
 20
1.8135
 30
0.0
 11
132.707
 21
3.01377
 31
0.0
  0
LINE
  8
0
 62
     0
 10
132.707
 20
3.01377
 30
0.0
 11
133.737
 21
3.01377
 31
0.0
  0
LINE
  8
0
 62
     0
 10
133.737
 20
3.01377
 30
0.0
 11
133.737
 21
2.78364
 31
0.0
  0
LINE
  8
0
 62
     0
 10
133.737
 20
2.78364
 30
0.0
 11
150.987
 21
2.78364
 31
0.0
  0
LINE
  8
0
 62
     0
 10
150.987
 20
2.78364
 30
0.0
 11
150.987
 21
1.8135
 31
0.0
  0
LINE
  8
0
 62
     0
 10
150.987
 20
1.8135
 30
0.0
 11
154.138
 21
1.8135
 31
0.0
  0
LINE
  8
0
 62
     0
 10
154.138
 20
1.8135
 30
0.0
 11
154.138
 21
2.78364
 31
0.0
  0
LINE
  8
0
 62
     0
 10
154.138
 20
2.78364
 30
0.0
 11
157.113
 21
2.78364
 31
0.0
  0
LINE
  8
0
 62
     0
 10
157.113
 20
2.78364
 30
0.0
 11
157.113
 21
16.6329
 31
0.0
  0
LINE
  8
0
 62
     0
 10
157.113
 20
16.6329
 30
0.0
 11
133.737
 21
16.6329
 31
0.0
  0
LINE
  8
0
 62
     0
 10
133.737
 20
16.6329
 30
0.0
 11
133.737
 21
15.1639
 31
0.0
  0
LINE
  8
0
 62
     0
 10
133.737
 20
15.1639
 30
0.0
 11
126.157
 21
15.1639
 31
0.0
  0
LINE
  8
0
 62
     0
 10
126.157
 20
15.1639
 30
0.0
 11
126.157
 21
16.6329
 31
0.0
  0
LINE
  8
0
 62
     0
 10
126.157
 20
16.6329
 30
0.0
 11
112.306
 21
16.6329
 31
0.0
  0
LINE
  8
0
 62
     0
 10
112.306
 20
16.6329
 30
0.0
 11
112.306
 21
15.1639
 31
0.0
  0
LINE
  8
0
 62
     0
 10
112.306
 20
15.1639
 30
0.0
 11
104.725
 21
15.1639
 31
0.0
  0
LINE
  8
0
 62
     0
 10
104.725
 20
15.1639
 30
0.0
 11
104.725
 21
16.6329
 31
0.0
  0
LINE
  8
0
 62
     0
 10
104.725
 20
16.6329
 30
0.0
 11
81.3513
 21
16.6329
 31
0.0
  0
LINE
  8
0
 62
     0
 10
221.845
 20
16.6329
 30
0.0
 11
235.694
 21
16.6329
 31
0.0
  0
LINE
  8
0
 62
     0
 10
235.694
 20
16.6329
 30
0.0
 11
235.694
 21
2.78364
 31
0.0
  0
LINE
  8
0
 62
     0
 10
235.694
 20
2.78364
 30
0.0
 11
221.845
 21
2.78364
 31
0.0
  0
LINE
  8
0
 62
     0
 10
221.845
 20
2.78364
 30
0.0
 11
221.845
 21
16.6329
 31
0.0
  0
LINE
  8
0
 62
     0
 10
202.795
 20
16.6329
 30
0.0
 11
216.644
 21
16.6329
 31
0.0
  0
LINE
  8
0
 62
     0
 10
216.644
 20
16.6329
 30
0.0
 11
216.644
 21
2.78364
 31
0.0
  0
LINE
  8
0
 62
     0
 10
216.644
 20
2.78364
 30
0.0
 11
202.795
 21
2.78364
 31
0.0
  0
LINE
  8
0
 62
     0
 10
202.795
 20
2.78364
 30
0.0
 11
202.795
 21
16.6329
 31
0.0
  0
LINE
  8
0
 62
     0
 10
183.745
 20
16.6329
 30
0.0
 11
197.594
 21
16.6329
 31
0.0
  0
LINE
  8
0
 62
     0
 10
197.594
 20
16.6329
 30
0.0
 11
197.594
 21
2.78364
 31
0.0
  0
LINE
  8
0
 62
     0
 10
197.594
 20
2.78364
 30
0.0
 11
183.745
 21
2.78364
 31
0.0
  0
LINE
  8
0
 62
     0
 10
183.745
 20
2.78364
 30
0.0
 11
183.745
 21
16.6329
 31
0.0
  0
LINE
  8
0
 62
     0
 10
164.695
 20
16.6329
 30
0.0
 11
178.544
 21
16.6329
 31
0.0
  0
LINE
  8
0
 62
     0
 10
178.544
 20
16.6329
 30
0.0
 11
178.544
 21
2.78364
 31
0.0
  0
LINE
  8
0
 62
     0
 10
178.544
 20
2.78364
 30
0.0
 11
164.695
 21
2.78364
 31
0.0
  0
LINE
  8
0
 62
     0
 10
164.695
 20
2.78364
 30
0.0
 11
164.695
 21
16.6329
 31
0.0
  0
LINE
  8
0
 62
     0
 10
59.92
 20
16.6329
 30
0.0
 11
73.769
 21
16.6329
 31
0.0
  0
LINE
  8
0
 62
     0
 10
73.769
 20
16.6329
 30
0.0
 11
73.769
 21
2.78364
 31
0.0
  0
LINE
  8
0
 62
     0
 10
73.769
 20
2.78364
 30
0.0
 11
59.92
 21
2.78364
 31
0.0
  0
LINE
  8
0
 62
     0
 10
59.92
 20
2.78364
 30
0.0
 11
59.92
 21
16.6329
 31
0.0
  0
LINE
  8
0
 62
     0
 10
40.87
 20
16.6329
 30
0.0
 11
54.719
 21
16.6329
 31
0.0
  0
LINE
  8
0
 62
     0
 10
54.719
 20
16.6329
 30
0.0
 11
54.719
 21
2.78364
 31
0.0
  0
LINE
  8
0
 62
     0
 10
54.719
 20
2.78364
 30
0.0
 11
40.87
 21
2.78364
 31
0.0
  0
LINE
  8
0
 62
     0
 10
40.87
 20
2.78364
 30
0.0
 11
40.87
 21
16.6329
 31
0.0
  0
LINE
  8
0
 62
     0
 10
21.8199
 20
16.6329
 30
0.0
 11
35.669
 21
16.6329
 31
0.0
  0
LINE
  8
0
 62
     0
 10
35.669
 20
16.6329
 30
0.0
 11
35.669
 21
2.78364
 31
0.0
  0
LINE
  8
0
 62
     0
 10
35.669
 20
2.78364
 30
0.0
 11
21.8199
 21
2.78364
 31
0.0
  0
LINE
  8
0
 62
     0
 10
21.8199
 20
2.78364
 30
0.0
 11
21.8199
 21
16.6329
 31
0.0
  0
LINE
  8
0
 62
     0
 10
2.76986
 20
16.6329
 30
0.0
 11
16.6192
 21
16.6329
 31
0.0
  0
LINE
  8
0
 62
     0
 10
16.6192
 20
16.6329
 30
0.0
 11
16.6192
 21
2.78364
 31
0.0
  0
LINE
  8
0
 62
     0
 10
16.6192
 20
2.78364
 30
0.0
 11
2.76986
 21
2.78364
 31
0.0
  0
LINE
  8
0
 62
     0
 10
2.76986
 20
2.78364
 30
0.0
 11
2.76986
 21
16.6329
 31
0.0
  0
LINE
  8
0
 62
     0
 10
221.845
 20
35.6828
 30
0.0
 11
235.694
 21
35.6828
 31
0.0
  0
LINE
  8
0
 62
     0
 10
235.694
 20
35.6828
 30
0.0
 11
235.694
 21
21.8336
 31
0.0
  0
LINE
  8
0
 62
     0
 10
235.694
 20
21.8336
 30
0.0
 11
221.845
 21
21.8336
 31
0.0
  0
LINE
  8
0
 62
     0
 10
221.845
 20
21.8336
 30
0.0
 11
221.845
 21
35.6828
 31
0.0
  0
LINE
  8
0
 62
     0
 10
202.795
 20
35.6828
 30
0.0
 11
216.644
 21
35.6828
 31
0.0
  0
LINE
  8
0
 62
     0
 10
216.644
 20
35.6828
 30
0.0
 11
216.644
 21
21.8336
 31
0.0
  0
LINE
  8
0
 62
     0
 10
216.644
 20
21.8336
 30
0.0
 11
202.795
 21
21.8336
 31
0.0
  0
LINE
  8
0
 62
     0
 10
202.795
 20
21.8336
 30
0.0
 11
202.795
 21
35.6828
 31
0.0
  0
LINE
  8
0
 62
     0
 10
183.745
 20
35.6828
 30
0.0
 11
197.594
 21
35.6828
 31
0.0
  0
LINE
  8
0
 62
     0
 10
197.594
 20
35.6828
 30
0.0
 11
197.594
 21
21.8336
 31
0.0
  0
LINE
  8
0
 62
     0
 10
197.594
 20
21.8336
 30
0.0
 11
183.745
 21
21.8336
 31
0.0
  0
LINE
  8
0
 62
     0
 10
183.745
 20
21.8336
 30
0.0
 11
183.745
 21
35.6828
 31
0.0
  0
LINE
  8
0
 62
     0
 10
164.695
 20
35.6828
 30
0.0
 11
178.544
 21
35.6828
 31
0.0
  0
LINE
  8
0
 62
     0
 10
178.544
 20
35.6828
 30
0.0
 11
178.544
 21
21.8336
 31
0.0
  0
LINE
  8
0
 62
     0
 10
178.544
 20
21.8336
 30
0.0
 11
164.695
 21
21.8336
 31
0.0
  0
LINE
  8
0
 62
     0
 10
164.695
 20
21.8336
 30
0.0
 11
164.695
 21
35.6828
 31
0.0
  0
LINE
  8
0
 62
     0
 10
145.644
 20
35.6828
 30
0.0
 11
159.494
 21
35.6828
 31
0.0
  0
LINE
  8
0
 62
     0
 10
159.494
 20
35.6828
 30
0.0
 11
159.494
 21
21.8336
 31
0.0
  0
LINE
  8
0
 62
     0
 10
159.494
 20
21.8336
 30
0.0
 11
145.644
 21
21.8336
 31
0.0
  0
LINE
  8
0
 62
     0
 10
145.644
 20
21.8336
 30
0.0
 11
145.644
 21
35.6828
 31
0.0
  0
LINE
  8
0
 62
     0
 10
126.594
 20
35.6828
 30
0.0
 11
140.444
 21
35.6828
 31
0.0
  0
LINE
  8
0
 62
     0
 10
140.444
 20
35.6828
 30
0.0
 11
140.444
 21
21.8336
 31
0.0
  0
LINE
  8
0
 62
     0
 10
140.444
 20
21.8336
 30
0.0
 11
126.594
 21
21.8336
 31
0.0
  0
LINE
  8
0
 62
     0
 10
126.594
 20
21.8336
 30
0.0
 11
126.594
 21
35.6828
 31
0.0
  0
LINE
  8
0
 62
     0
 10
107.544
 20
35.6828
 30
0.0
 11
121.394
 21
35.6828
 31
0.0
  0
LINE
  8
0
 62
     0
 10
121.394
 20
35.6828
 30
0.0
 11
121.394
 21
21.8336
 31
0.0
  0
LINE
  8
0
 62
     0
 10
121.394
 20
21.8336
 30
0.0
 11
107.544
 21
21.8336
 31
0.0
  0
LINE
  8
0
 62
     0
 10
107.544
 20
21.8336
 30
0.0
 11
107.544
 21
35.6828
 31
0.0
  0
LINE
  8
0
 62
     0
 10
88.4936
 20
35.6828
 30
0.0
 11
102.344
 21
35.6828
 31
0.0
  0
LINE
  8
0
 62
     0
 10
102.344
 20
35.6828
 30
0.0
 11
102.344
 21
21.8336
 31
0.0
  0
LINE
  8
0
 62
     0
 10
102.344
 20
21.8336
 30
0.0
 11
88.4936
 21
21.8336
 31
0.0
  0
LINE
  8
0
 62
     0
 10
88.4936
 20
21.8336
 30
0.0
 11
88.4936
 21
35.6828
 31
0.0
  0
LINE
  8
0
 62
     0
 10
69.445
 20
35.6828
 30
0.0
 11
83.294
 21
35.6828
 31
0.0
  0
LINE
  8
0
 62
     0
 10
83.294
 20
35.6828
 30
0.0
 11
83.294
 21
21.8336
 31
0.0
  0
LINE
  8
0
 62
     0
 10
83.294
 20
21.8336
 30
0.0
 11
69.445
 21
21.8336
 31
0.0
  0
LINE
  8
0
 62
     0
 10
69.445
 20
21.8336
 30
0.0
 11
69.445
 21
35.6828
 31
0.0
  0
LINE
  8
0
 62
     0
 10
50.395
 20
35.6828
 30
0.0
 11
64.244
 21
35.6828
 31
0.0
  0
LINE
  8
0
 62
     0
 10
64.244
 20
35.6828
 30
0.0
 11
64.244
 21
21.8336
 31
0.0
  0
LINE
  8
0
 62
     0
 10
64.244
 20
21.8336
 30
0.0
 11
50.395
 21
21.8336
 31
0.0
  0
LINE
  8
0
 62
     0
 10
50.395
 20
21.8336
 30
0.0
 11
50.395
 21
35.6828
 31
0.0
  0
LINE
  8
0
 62
     0
 10
31.3449
 20
35.6828
 30
0.0
 11
45.194
 21
35.6828
 31
0.0
  0
LINE
  8
0
 62
     0
 10
45.194
 20
35.6828
 30
0.0
 11
45.194
 21
21.8336
 31
0.0
  0
LINE
  8
0
 62
     0
 10
45.194
 20
21.8336
 30
0.0
 11
31.3449
 21
21.8336
 31
0.0
  0
LINE
  8
0
 62
     0
 10
31.3449
 20
21.8336
 30
0.0
 11
31.3449
 21
35.6828
 31
0.0
  0
LINE
  8
0
 62
     0
 10
7.53099
 20
35.6828
 30
0.0
 11
21.3817
 21
35.6828
 31
0.0
  0
LINE
  8
0
 62
     0
 10
21.3817
 20
35.6828
 30
0.0
 11
21.3817
 21
21.8336
 31
0.0
  0
LINE
  8
0
 62
     0
 10
21.3817
 20
21.8336
 30
0.0
 11
7.53099
 21
21.8336
 31
0.0
  0
LINE
  8
0
 62
     0
 10
7.53099
 20
21.8336
 30
0.0
 11
7.53099
 21
35.6828
 31
0.0
  0
LINE
  8
0
 62
     0
 10
219.462
 20
54.7328
 30
0.0
 11
233.313
 21
54.7328
 31
0.0
  0
LINE
  8
0
 62
     0
 10
233.313
 20
54.7328
 30
0.0
 11
233.313
 21
40.8838
 31
0.0
  0
LINE
  8
0
 62
     0
 10
233.313
 20
40.8838
 30
0.0
 11
219.462
 21
40.8838
 31
0.0
  0
LINE
  8
0
 62
     0
 10
219.462
 20
40.8838
 30
0.0
 11
219.462
 21
54.7328
 31
0.0
  0
LINE
  8
0
 62
     0
 10
198.031
 20
54.7328
 30
0.0
 11
211.882
 21
54.7328
 31
0.0
  0
LINE
  8
0
 62
     0
 10
211.882
 20
54.7328
 30
0.0
 11
211.882
 21
40.8838
 31
0.0
  0
LINE
  8
0
 62
     0
 10
211.882
 20
40.8838
 30
0.0
 11
198.031
 21
40.8838
 31
0.0
  0
LINE
  8
0
 62
     0
 10
198.031
 20
40.8838
 30
0.0
 11
198.031
 21
54.7328
 31
0.0
  0
LINE
  8
0
 62
     0
 10
178.981
 20
54.7328
 30
0.0
 11
192.832
 21
54.7328
 31
0.0
  0
LINE
  8
0
 62
     0
 10
192.832
 20
54.7328
 30
0.0
 11
192.832
 21
40.8838
 31
0.0
  0
LINE
  8
0
 62
     0
 10
192.832
 20
40.8838
 30
0.0
 11
178.981
 21
40.8838
 31
0.0
  0
LINE
  8
0
 62
     0
 10
178.981
 20
40.8838
 30
0.0
 11
178.981
 21
54.7328
 31
0.0
  0
LINE
  8
0
 62
     0
 10
159.931
 20
54.7328
 30
0.0
 11
173.782
 21
54.7328
 31
0.0
  0
LINE
  8
0
 62
     0
 10
173.782
 20
54.7328
 30
0.0
 11
173.782
 21
40.8838
 31
0.0
  0
LINE
  8
0
 62
     0
 10
173.782
 20
40.8838
 30
0.0
 11
159.931
 21
40.8838
 31
0.0
  0
LINE
  8
0
 62
     0
 10
159.931
 20
40.8838
 30
0.0
 11
159.931
 21
54.7328
 31
0.0
  0
LINE
  8
0
 62
     0
 10
140.881
 20
54.7328
 30
0.0
 11
154.732
 21
54.7328
 31
0.0
  0
LINE
  8
0
 62
     0
 10
154.732
 20
54.7328
 30
0.0
 11
154.732
 21
40.8838
 31
0.0
  0
LINE
  8
0
 62
     0
 10
154.732
 20
40.8838
 30
0.0
 11
140.881
 21
40.8838
 31
0.0
  0
LINE
  8
0
 62
     0
 10
140.881
 20
40.8838
 30
0.0
 11
140.881
 21
54.7328
 31
0.0
  0
LINE
  8
0
 62
     0
 10
121.831
 20
54.7328
 30
0.0
 11
135.682
 21
54.7328
 31
0.0
  0
LINE
  8
0
 62
     0
 10
135.682
 20
54.7328
 30
0.0
 11
135.682
 21
40.8838
 31
0.0
  0
LINE
  8
0
 62
     0
 10
135.682
 20
40.8838
 30
0.0
 11
121.831
 21
40.8838
 31
0.0
  0
LINE
  8
0
 62
     0
 10
121.831
 20
40.8838
 30
0.0
 11
121.831
 21
54.7328
 31
0.0
  0
LINE
  8
0
 62
     0
 10
102.781
 20
54.7328
 30
0.0
 11
116.632
 21
54.7328
 31
0.0
  0
LINE
  8
0
 62
     0
 10
116.632
 20
54.7328
 30
0.0
 11
116.632
 21
40.8838
 31
0.0
  0
LINE
  8
0
 62
     0
 10
116.632
 20
40.8838
 30
0.0
 11
102.781
 21
40.8838
 31
0.0
  0
LINE
  8
0
 62
     0
 10
102.781
 20
40.8838
 30
0.0
 11
102.781
 21
54.7328
 31
0.0
  0
LINE
  8
0
 62
     0
 10
83.7311
 20
54.7328
 30
0.0
 11
97.5815
 21
54.7328
 31
0.0
  0
LINE
  8
0
 62
     0
 10
97.5815
 20
54.7328
 30
0.0
 11
97.5815
 21
40.8838
 31
0.0
  0
LINE
  8
0
 62
     0
 10
97.5815
 20
40.8838
 30
0.0
 11
83.7311
 21
40.8838
 31
0.0
  0
LINE
  8
0
 62
     0
 10
83.7311
 20
40.8838
 30
0.0
 11
83.7311
 21
54.7328
 31
0.0
  0
LINE
  8
0
 62
     0
 10
64.6811
 20
54.7328
 30
0.0
 11
78.5315
 21
54.7328
 31
0.0
  0
LINE
  8
0
 62
     0
 10
78.5315
 20
54.7328
 30
0.0
 11
78.5315
 21
40.8838
 31
0.0
  0
LINE
  8
0
 62
     0
 10
78.5315
 20
40.8838
 30
0.0
 11
64.6811
 21
40.8838
 31
0.0
  0
LINE
  8
0
 62
     0
 10
64.6811
 20
40.8838
 30
0.0
 11
64.6811
 21
54.7328
 31
0.0
  0
LINE
  8
0
 62
     0
 10
45.6311
 20
54.7328
 30
0.0
 11
59.4815
 21
54.7328
 31
0.0
  0
LINE
  8
0
 62
     0
 10
59.4815
 20
54.7328
 30
0.0
 11
59.4815
 21
40.8838
 31
0.0
  0
LINE
  8
0
 62
     0
 10
59.4815
 20
40.8838
 30
0.0
 11
45.6311
 21
40.8838
 31
0.0
  0
LINE
  8
0
 62
     0
 10
45.6311
 20
40.8838
 30
0.0
 11
45.6311
 21
54.7328
 31
0.0
  0
LINE
  8
0
 62
     0
 10
26.581
 20
54.7328
 30
0.0
 11
40.4315
 21
54.7328
 31
0.0
  0
LINE
  8
0
 62
     0
 10
40.4315
 20
54.7328
 30
0.0
 11
40.4315
 21
40.8838
 31
0.0
  0
LINE
  8
0
 62
     0
 10
40.4315
 20
40.8838
 30
0.0
 11
26.581
 21
40.8838
 31
0.0
  0
LINE
  8
0
 62
     0
 10
26.581
 20
40.8838
 30
0.0
 11
26.581
 21
54.7328
 31
0.0
  0
LINE
  8
0
 62
     0
 10
5.15112
 20
54.7328
 30
0.0
 11
19.0004
 21
54.7328
 31
0.0
  0
LINE
  8
0
 62
     0
 10
19.0004
 20
54.7328
 30
0.0
 11
19.0004
 21
40.8838
 31
0.0
  0
LINE
  8
0
 62
     0
 10
19.0004
 20
40.8838
 30
0.0
 11
5.15112
 21
40.8838
 31
0.0
  0
LINE
  8
0
 62
     0
 10
5.15112
 20
40.8838
 30
0.0
 11
5.15112
 21
54.7328
 31
0.0
  0
LINE
  8
0
 62
     0
 10
217.081
 20
73.7828
 30
0.0
 11
230.932
 21
73.7828
 31
0.0
  0
LINE
  8
0
 62
     0
 10
230.932
 20
73.7828
 30
0.0
 11
230.932
 21
59.9338
 31
0.0
  0
LINE
  8
0
 62
     0
 10
230.932
 20
59.9338
 30
0.0
 11
217.081
 21
59.9338
 31
0.0
  0
LINE
  8
0
 62
     0
 10
217.081
 20
59.9338
 30
0.0
 11
217.081
 21
73.7828
 31
0.0
  0
LINE
  8
0
 62
     0
 10
193.27
 20
73.7828
 30
0.0
 11
207.119
 21
73.7828
 31
0.0
  0
LINE
  8
0
 62
     0
 10
207.119
 20
73.7828
 30
0.0
 11
207.119
 21
59.9338
 31
0.0
  0
LINE
  8
0
 62
     0
 10
207.119
 20
59.9338
 30
0.0
 11
193.27
 21
59.9338
 31
0.0
  0
LINE
  8
0
 62
     0
 10
193.27
 20
59.9338
 30
0.0
 11
193.27
 21
73.7828
 31
0.0
  0
LINE
  8
0
 62
     0
 10
174.22
 20
73.7828
 30
0.0
 11
188.069
 21
73.7828
 31
0.0
  0
LINE
  8
0
 62
     0
 10
188.069
 20
73.7828
 30
0.0
 11
188.069
 21
59.9338
 31
0.0
  0
LINE
  8
0
 62
     0
 10
188.069
 20
59.9338
 30
0.0
 11
174.22
 21
59.9338
 31
0.0
  0
LINE
  8
0
 62
     0
 10
174.22
 20
59.9338
 30
0.0
 11
174.22
 21
73.7828
 31
0.0
  0
LINE
  8
0
 62
     0
 10
155.17
 20
73.7828
 30
0.0
 11
169.019
 21
73.7828
 31
0.0
  0
LINE
  8
0
 62
     0
 10
169.019
 20
73.7828
 30
0.0
 11
169.019
 21
59.9338
 31
0.0
  0
LINE
  8
0
 62
     0
 10
169.019
 20
59.9338
 30
0.0
 11
155.17
 21
59.9338
 31
0.0
  0
LINE
  8
0
 62
     0
 10
155.17
 20
59.9338
 30
0.0
 11
155.17
 21
73.7828
 31
0.0
  0
LINE
  8
0
 62
     0
 10
136.12
 20
73.7828
 30
0.0
 11
149.969
 21
73.7828
 31
0.0
  0
LINE
  8
0
 62
     0
 10
149.969
 20
73.7828
 30
0.0
 11
149.969
 21
59.9338
 31
0.0
  0
LINE
  8
0
 62
     0
 10
149.969
 20
59.9338
 30
0.0
 11
136.12
 21
59.9338
 31
0.0
  0
LINE
  8
0
 62
     0
 10
136.12
 20
59.9338
 30
0.0
 11
136.12
 21
73.7828
 31
0.0
  0
LINE
  8
0
 62
     0
 10
117.07
 20
73.7828
 30
0.0
 11
130.919
 21
73.7828
 31
0.0
  0
LINE
  8
0
 62
     0
 10
130.919
 20
73.7828
 30
0.0
 11
130.919
 21
59.9338
 31
0.0
  0
LINE
  8
0
 62
     0
 10
130.919
 20
59.9338
 30
0.0
 11
117.07
 21
59.9338
 31
0.0
  0
LINE
  8
0
 62
     0
 10
117.07
 20
59.9338
 30
0.0
 11
117.07
 21
73.7828
 31
0.0
  0
LINE
  8
0
 62
     0
 10
98.02
 20
73.7828
 30
0.0
 11
111.869
 21
73.7828
 31
0.0
  0
LINE
  8
0
 62
     0
 10
111.869
 20
73.7828
 30
0.0
 11
111.869
 21
59.9338
 31
0.0
  0
LINE
  8
0
 62
     0
 10
111.869
 20
59.9338
 30
0.0
 11
98.02
 21
59.9338
 31
0.0
  0
LINE
  8
0
 62
     0
 10
98.02
 20
59.9338
 30
0.0
 11
98.02
 21
73.7828
 31
0.0
  0
LINE
  8
0
 62
     0
 10
78.97
 20
73.7828
 30
0.0
 11
92.819
 21
73.7828
 31
0.0
  0
LINE
  8
0
 62
     0
 10
92.819
 20
73.7828
 30
0.0
 11
92.819
 21
59.9338
 31
0.0
  0
LINE
  8
0
 62
     0
 10
92.819
 20
59.9338
 30
0.0
 11
78.97
 21
59.9338
 31
0.0
  0
LINE
  8
0
 62
     0
 10
78.97
 20
59.9338
 30
0.0
 11
78.97
 21
73.7828
 31
0.0
  0
LINE
  8
0
 62
     0
 10
59.92
 20
73.7828
 30
0.0
 11
73.769
 21
73.7828
 31
0.0
  0
LINE
  8
0
 62
     0
 10
73.769
 20
73.7828
 30
0.0
 11
73.769
 21
59.9338
 31
0.0
  0
LINE
  8
0
 62
     0
 10
73.769
 20
59.9338
 30
0.0
 11
59.92
 21
59.9338
 31
0.0
  0
LINE
  8
0
 62
     0
 10
59.92
 20
59.9338
 30
0.0
 11
59.92
 21
73.7828
 31
0.0
  0
LINE
  8
0
 62
     0
 10
40.87
 20
73.7828
 30
0.0
 11
54.719
 21
73.7828
 31
0.0
  0
LINE
  8
0
 62
     0
 10
54.719
 20
73.7828
 30
0.0
 11
54.719
 21
59.9338
 31
0.0
  0
LINE
  8
0
 62
     0
 10
54.719
 20
59.9338
 30
0.0
 11
40.87
 21
59.9338
 31
0.0
  0
LINE
  8
0
 62
     0
 10
40.87
 20
59.9338
 30
0.0
 11
40.87
 21
73.7828
 31
0.0
  0
LINE
  8
0
 62
     0
 10
21.8199
 20
73.7828
 30
0.0
 11
35.669
 21
73.7828
 31
0.0
  0
LINE
  8
0
 62
     0
 10
35.669
 20
73.7828
 30
0.0
 11
35.669
 21
59.9338
 31
0.0
  0
LINE
  8
0
 62
     0
 10
35.669
 20
59.9338
 30
0.0
 11
21.8199
 21
59.9338
 31
0.0
  0
LINE
  8
0
 62
     0
 10
21.8199
 20
59.9338
 30
0.0
 11
21.8199
 21
73.7828
 31
0.0
  0
LINE
  8
0
 62
     0
 10
2.76986
 20
73.7828
 30
0.0
 11
16.6192
 21
73.7828
 31
0.0
  0
LINE
  8
0
 62
     0
 10
16.6192
 20
73.7828
 30
0.0
 11
16.6192
 21
59.9338
 31
0.0
  0
LINE
  8
0
 62
     0
 10
16.6192
 20
59.9338
 30
0.0
 11
2.76986
 21
59.9338
 31
0.0
  0
LINE
  8
0
 62
     0
 10
2.76986
 20
59.9338
 30
0.0
 11
2.76986
 21
73.7828
 31
0.0
  0
ENDSEC
  0
EOF
