M48
; DRILL file {KiCad (5.99.0-11526-gd613292b67)} date Sun Nov  7 01:25:37 2021
; FORMAT={-:-/ absolute / inch / decimal}
; #@! TF.CreationDate,2021-11-07T01:25:37-05:00
; #@! TF.GenerationSoftware,Kicad,Pcbnew,(5.99.0-11526-gd613292b67)
; #@! TF.FileFunction,NonPlated,1,2,NPTH
FMAT,2
INCH
; #@! TA.AperFunction,NonPlated,NPTH,ComponentDrill
T1C0.0472
; #@! TA.AperFunction,NonPlated,NPTH,ComponentDrill
T2C0.0689
; #@! TA.AperFunction,NonPlated,NPTH,ComponentDrill
T3C0.0866
; #@! TA.AperFunction,NonPlated,NPTH,ComponentDrill
T4C0.1200
; #@! TA.AperFunction,NonPlated,NPTH,ComponentDrill
T5C0.1570
%
G90
G05
T1
X11.0161Y-3.6457
T2
X0.8296Y-2.4707
X0.8296Y-4.7207
X0.9234Y-3.2207
X1.0171Y-3.9707
X1.2296Y-2.4707
X1.2296Y-4.7207
X1.3234Y-3.2207
X1.4171Y-3.9707
X1.5796Y-2.4707
X1.5796Y-4.7207
X1.7671Y-3.2207
X1.9546Y-3.9707
X1.9796Y-2.4707
X1.9796Y-4.7207
X2.1671Y-3.2207
X2.3296Y-2.4707
X2.3296Y-4.7207
X2.3546Y-3.9707
X2.5171Y-3.2207
X2.7046Y-3.9707
X2.7296Y-2.4707
X2.7296Y-4.7207
X2.9171Y-3.2207
X3.0796Y-2.4707
X3.0796Y-4.7207
X3.1046Y-3.9707
X3.2671Y-3.2207
X3.4546Y-3.9707
X3.4796Y-2.4707
X3.4796Y-4.7207
X3.6671Y-3.2207
X3.8296Y-2.4707
X3.8546Y-3.9707
X3.9234Y-4.7207
X4.0171Y-3.2207
X4.2046Y-3.9707
X4.2296Y-2.4707
X4.3Y-4.72
X4.3234Y-4.7207
X4.4171Y-3.2207
X4.5796Y-2.4707
X4.6046Y-3.9707
X4.7Y-4.72
X4.7671Y-3.2207
X4.9546Y-3.9707
X4.9796Y-2.4707
X5.1421Y-4.7207
X5.1671Y-3.2207
X5.3296Y-2.4707
X5.3546Y-3.9707
X5.5171Y-3.2207
X5.5421Y-4.7207
X5.7046Y-3.9707
X5.7296Y-2.4707
X5.9171Y-3.2207
X5.99Y-4.72
X6.0796Y-2.4707
X6.1046Y-3.9707
X6.2671Y-3.2207
X6.3609Y-4.7207
X6.39Y-4.72
X6.4546Y-3.9707
X6.4796Y-2.4707
X6.6671Y-3.2207
X6.7609Y-4.7207
X6.8296Y-2.4707
X6.8546Y-3.9707
X7.0171Y-3.2207
X7.2046Y-3.9707
X7.2046Y-4.7207
X7.2296Y-2.4707
X7.4171Y-3.2207
X7.5796Y-2.4707
X7.6046Y-3.9707
X7.6046Y-4.7207
X7.7671Y-3.2207
X7.9546Y-3.9707
X7.9546Y-4.7207
X7.9796Y-2.4707
X8.1671Y-3.2207
X8.3296Y-2.4707
X8.3546Y-3.9707
X8.3546Y-4.7207
X8.5171Y-3.2207
X8.7046Y-3.9707
X8.7046Y-4.722
X8.7296Y-2.4707
X8.9171Y-3.2207
X9.1046Y-3.9707
X9.1046Y-4.722
X9.2671Y-2.4707
X9.3609Y-3.2207
X9.4546Y-3.9707
X9.4546Y-4.7207
X9.6671Y-2.4707
X9.7609Y-3.2207
X9.8546Y-3.9707
X9.8546Y-4.7207
T3
X10.164Y-2.192
X10.164Y-5.0014
X11.0218Y-2.192
X11.0218Y-5.0014
T4
X3.0921Y-4.9958
X4.0312Y-4.995
X4.8734Y-4.9958
X4.9688Y-4.995
X5.7212Y-4.995
X5.8109Y-4.9958
X6.6587Y-4.995
X7.5921Y-4.9958
T5
X1.0296Y-2.4707
X1.0296Y-4.7207
X1.1234Y-3.2207
X1.2171Y-3.9707
X1.7796Y-2.4707
X1.7796Y-4.7207
X1.9671Y-3.2207
X2.1546Y-3.9707
X2.5296Y-2.4707
X2.5296Y-4.7207
X2.7171Y-3.2207
X2.9046Y-3.9707
X3.0921Y-4.3957
X3.2796Y-2.4707
X3.2796Y-4.7207
X3.4671Y-3.2207
X3.6546Y-3.9707
X4.0296Y-2.4707
X4.0312Y-4.395
X4.1234Y-4.7207
X4.2171Y-3.2207
X4.4046Y-3.9707
X4.5Y-4.72
X4.7796Y-2.4707
X4.8734Y-4.3957
X4.9671Y-3.2207
X4.9688Y-4.395
X5.1546Y-3.9707
X5.3421Y-4.7207
X5.5296Y-2.4707
X5.7171Y-3.2207
X5.7212Y-4.395
X5.8109Y-4.3957
X5.9046Y-3.9707
X6.19Y-4.72
X6.2796Y-2.4707
X6.4671Y-3.2207
X6.5609Y-4.7207
X6.6546Y-3.9707
X6.6587Y-4.395
X7.0296Y-2.4707
X7.2171Y-3.2207
X7.4046Y-3.9707
X7.4046Y-4.7207
X7.5921Y-4.3957
X7.7796Y-2.4707
X7.9671Y-3.2207
X8.1546Y-3.9707
X8.1546Y-4.7207
X8.5296Y-2.4707
X8.7171Y-3.2207
X8.9046Y-3.9707
X8.9046Y-4.722
X9.4671Y-2.4707
X9.5609Y-3.2207
X9.6546Y-3.9707
X9.6546Y-4.7207
T0
M30
