M48
; DRILL file {KiCad (5.99.0-11526-gd613292b67)} date Wed Nov 24 22:52:32 2021
; FORMAT={-:-/ absolute / inch / decimal}
; #@! TF.CreationDate,2021-11-24T22:52:32-05:00
; #@! TF.GenerationSoftware,Kicad,Pcbnew,(5.99.0-11526-gd613292b67)
; #@! TF.FileFunction,Plated,1,2,PTH
FMAT,2
INCH
; #@! TA.AperFunction,Plated,PTH,ViaDrill
T1C0.0157
; #@! TA.AperFunction,Plated,PTH,ComponentDrill
T2C0.0295
; #@! TA.AperFunction,Plated,PTH,ComponentDrill
T3C0.0320
; #@! TA.AperFunction,Plated,PTH,ComponentDrill
T4C0.0390
; #@! TA.AperFunction,Plated,PTH,ComponentDrill
T5C0.0394
; #@! TA.AperFunction,Plated,PTH,ComponentDrill
T6C0.0430
; #@! TA.AperFunction,Plated,PTH,ComponentDrill
T7C0.0512
; #@! TA.AperFunction,Plated,PTH,ComponentDrill
T8C0.0579
; #@! TA.AperFunction,Plated,PTH,ComponentDrill
T9C0.0591
; #@! TA.AperFunction,Plated,PTH,ComponentDrill
T10C0.0984
%
G90
G05
T1
X3.8984Y-4.3688
X9.869Y-4.627
T2
X10.0669Y-2.3957
X10.1457Y-2.3957
T3
X10.44Y-3.5301
X10.54Y-3.5301
X10.64Y-3.5301
X10.74Y-3.5301
T4
X10.3199Y-3.7633
X10.5167Y-3.7633
T5
X1.3546Y-2.2791
X1.3546Y-2.5862
X1.4046Y-4.5278
X1.4046Y-4.8349
X1.4484Y-3.0278
X1.4484Y-3.3349
X1.5921Y-3.7778
X1.5921Y-4.0849
X2.1046Y-2.2791
X2.1046Y-2.5862
X2.1546Y-4.5278
X2.1546Y-4.8349
X2.2921Y-3.0278
X2.2921Y-3.3349
X2.5296Y-3.7778
X2.5296Y-4.0849
X2.8546Y-2.2791
X2.8546Y-2.5862
X2.9046Y-4.5278
X2.9046Y-4.8349
X3.0446Y-3.0291
X3.0446Y-3.3362
X3.2796Y-3.7778
X3.2796Y-4.0849
X3.6046Y-2.2791
X3.6046Y-2.5862
X3.61Y-4.5278
X3.61Y-4.8349
X3.695Y-4.5278
X3.695Y-4.8349
X3.78Y-4.5278
X3.78Y-4.8349
X3.7921Y-3.0278
X3.7921Y-3.3349
X4.0296Y-3.7778
X4.0296Y-4.0849
X4.3546Y-2.2791
X4.3546Y-2.5862
X4.5421Y-3.0278
X4.5421Y-3.3349
X4.7796Y-3.7778
X4.7796Y-4.0849
X5.1046Y-2.2791
X5.1046Y-2.5862
X5.2921Y-3.0278
X5.2921Y-3.3349
X5.5296Y-3.7778
X5.5296Y-4.0849
X5.8546Y-2.2791
X5.8546Y-2.5862
X6.0421Y-3.0278
X6.0421Y-3.3349
X6.2796Y-3.7778
X6.2796Y-4.0849
X6.6546Y-2.2791
X6.6546Y-2.5862
X6.8421Y-3.0278
X6.8421Y-3.3349
X7.0296Y-3.7778
X7.0296Y-4.0849
X7.0296Y-4.5278
X7.0296Y-4.8349
X7.4046Y-2.2791
X7.4046Y-2.5862
X7.5921Y-3.0278
X7.5921Y-3.3349
X7.7796Y-3.7778
X7.7796Y-4.0849
X7.7796Y-4.5278
X7.7796Y-4.8349
X8.1546Y-2.2791
X8.1546Y-2.5862
X8.3421Y-3.0278
X8.3421Y-3.3349
X8.5296Y-3.7778
X8.5296Y-4.0849
X8.5296Y-4.5278
X8.5296Y-4.8349
X8.9046Y-2.2791
X8.9046Y-2.5862
X9.0921Y-3.0278
X9.0921Y-3.3349
X9.2796Y-3.7778
X9.2796Y-4.0849
X9.2796Y-4.5278
X9.2796Y-4.8349
X9.8421Y-2.2791
X9.8421Y-2.5862
X9.9359Y-3.0278
X9.9359Y-3.3349
X10.0296Y-3.7778
X10.0296Y-4.0849
X10.0296Y-4.5278
X10.0296Y-4.8349
X10.4385Y-4.7345
X10.4936Y-4.0031
X10.4936Y-4.5739
X10.592Y-4.0031
X10.6904Y-4.0031
X10.6904Y-4.5739
X10.7455Y-4.7345
T6
X10.292Y-2.2731
X10.292Y-2.3731
X10.292Y-2.4731
X10.292Y-2.5731
X10.292Y-2.6731
X10.292Y-2.7731
X10.292Y-2.8731
X10.292Y-2.9731
X10.292Y-3.0731
X10.292Y-3.1731
X10.292Y-3.2731
X10.292Y-3.3731
X10.392Y-3.3731
X10.492Y-3.3731
X10.5913Y-3.1732
X10.592Y-3.3731
X10.6913Y-3.1732
X10.692Y-3.3731
X10.7913Y-3.1732
X10.792Y-3.3731
X10.883Y-3.3731
X10.892Y-2.2731
X10.892Y-2.3731
X10.892Y-2.4731
X10.892Y-2.5731
X10.892Y-2.6731
X10.892Y-2.7731
X10.892Y-2.8731
X10.892Y-2.9731
X10.892Y-3.0731
X10.892Y-3.1731
X10.892Y-3.2731
T7
X10.2801Y-3.6653
X10.5561Y-3.6653
T8
X0.8796Y-2.3708
X0.8796Y-4.6208
X0.9734Y-3.1208
X1.0671Y-3.8707
X1.1296Y-2.2708
X1.1296Y-4.5207
X1.2234Y-3.0208
X1.3171Y-3.7708
X1.6296Y-2.3708
X1.6296Y-4.6208
X1.8171Y-3.1208
X1.8796Y-2.2708
X1.8796Y-4.5207
X2.0046Y-3.8707
X2.0671Y-3.0208
X2.2546Y-3.7708
X2.3796Y-2.3708
X2.3796Y-4.6208
X2.5671Y-3.1208
X2.6296Y-2.2708
X2.6296Y-4.5207
X2.7546Y-3.8707
X2.8171Y-3.0208
X3.0046Y-3.7708
X3.1296Y-2.3708
X3.1296Y-4.6208
X3.3171Y-3.1208
X3.3796Y-2.2708
X3.3796Y-4.5207
X3.5046Y-3.8707
X3.5671Y-3.0208
X3.7546Y-3.7708
X3.8796Y-2.3708
X3.9734Y-4.6208
X4.0671Y-3.1208
X4.1296Y-2.2708
X4.2234Y-4.5207
X4.2546Y-3.8707
X4.3171Y-3.0208
X4.35Y-4.62
X4.5046Y-3.7708
X4.6Y-4.52
X4.6296Y-2.3708
X4.8171Y-3.1208
X4.8796Y-2.2708
X5.0046Y-3.8707
X5.0671Y-3.0208
X5.1921Y-4.6208
X5.2546Y-3.7708
X5.3796Y-2.3708
X5.4421Y-4.5207
X5.5671Y-3.1208
X5.6296Y-2.2708
X5.7546Y-3.8707
X5.8171Y-3.0208
X6.0046Y-3.7708
X6.04Y-4.62
X6.1296Y-2.3708
X6.29Y-4.52
X6.3171Y-3.1208
X6.3796Y-2.2708
X6.4109Y-4.6208
X6.5046Y-3.8707
X6.5671Y-3.0208
X6.6609Y-4.5207
X6.7546Y-3.7708
X6.8796Y-2.3708
X7.0671Y-3.1208
X7.1296Y-2.2708
X7.2546Y-3.8707
X7.2546Y-4.6208
X7.3171Y-3.0208
X7.5046Y-3.7708
X7.5046Y-4.5207
X7.6296Y-2.3708
X7.8171Y-3.1208
X7.8796Y-2.2708
X8.0046Y-3.8707
X8.0046Y-4.6208
X8.0671Y-3.0208
X8.2546Y-3.7708
X8.2546Y-4.5207
X8.3796Y-2.3708
X8.5671Y-3.1208
X8.6296Y-2.2708
X8.7546Y-3.8707
X8.7546Y-4.622
X8.8171Y-3.0208
X9.0046Y-3.7708
X9.0046Y-4.522
X9.3171Y-2.3708
X9.4109Y-3.1208
X9.5046Y-3.8707
X9.5046Y-4.6208
X9.5671Y-2.2708
X9.6609Y-3.0208
X9.7546Y-3.7708
X9.7546Y-4.5207
T9
G00X10.3715Y-4.2728
M15
G01X10.3715Y-4.3239
M16
G05
G00X10.8125Y-4.2728
M15
G01X10.8125Y-4.3239
M16
G05
T10
G00X0.7548Y-2.812
M15
G01X0.8532Y-2.812
M16
G05
G00X0.7548Y-4.332
M15
G01X0.8532Y-4.332
M16
G05
G00X5.2947Y-3.552
M15
G01X5.3933Y-3.552
M16
G05
G00X9.8323Y-2.812
M15
G01X9.9307Y-2.812
M16
G05
G00X9.8323Y-4.3345
M15
G01X9.9307Y-4.3345
M16
G05
T0
M30
