G04 #@! TF.GenerationSoftware,KiCad,Pcbnew,(5.99.0-11526-gd613292b67)*
G04 #@! TF.CreationDate,2021-11-24T22:52:28-05:00*
G04 #@! TF.ProjectId,Whimsy,5768696d-7379-42e6-9b69-6361645f7063,0.2*
G04 #@! TF.SameCoordinates,Original*
G04 #@! TF.FileFunction,Soldermask,Bot*
G04 #@! TF.FilePolarity,Negative*
%FSLAX46Y46*%
G04 Gerber Fmt 4.6, Leading zero omitted, Abs format (unit mm)*
G04 Created by KiCad (PCBNEW (5.99.0-11526-gd613292b67)) date 2021-11-24 22:52:28*
%MOMM*%
%LPD*%
G01*
G04 APERTURE LIST*
G04 Aperture macros list*
%AMRoundRect*
0 Rectangle with rounded corners*
0 $1 Rounding radius*
0 $2 $3 $4 $5 $6 $7 $8 $9 X,Y pos of 4 corners*
0 Add a 4 corners polygon primitive as box body*
4,1,4,$2,$3,$4,$5,$6,$7,$8,$9,$2,$3,0*
0 Add four circle primitives for the rounded corners*
1,1,$1+$1,$2,$3*
1,1,$1+$1,$4,$5*
1,1,$1+$1,$6,$7*
1,1,$1+$1,$8,$9*
0 Add four rect primitives between the rounded corners*
20,1,$1+$1,$2,$3,$4,$5,0*
20,1,$1+$1,$4,$5,$6,$7,0*
20,1,$1+$1,$6,$7,$8,$9,0*
20,1,$1+$1,$8,$9,$2,$3,0*%
G04 Aperture macros list end*
%ADD10R,1.600000X1.600000*%
%ADD11R,1.200000X1.600000*%
%ADD12C,1.600000*%
%ADD13R,1.600000X1.200000*%
%ADD14C,3.048000*%
%ADD15C,3.987800*%
%ADD16C,2.200000*%
%ADD17C,7.000240*%
%ADD18C,1.750000*%
%ADD19C,2.250000*%
%ADD20C,1.397000*%
%ADD21C,2.000000*%
%ADD22R,2.000000X3.200000*%
%ADD23C,1.752600*%
%ADD24C,1.200000*%
%ADD25C,2.100000*%
%ADD26R,1.752600X1.752600*%
%ADD27RoundRect,0.250000X0.350000X0.625000X-0.350000X0.625000X-0.350000X-0.625000X0.350000X-0.625000X0*%
%ADD28O,1.200000X1.750000*%
G04 APERTURE END LIST*
D10*
X211890100Y-84707050D03*
D11*
X211890100Y-82207050D03*
X211890100Y-79407050D03*
D12*
X211890100Y-76907050D03*
D10*
X192840100Y-84707050D03*
D11*
X192840100Y-82207050D03*
D12*
X192840100Y-76907050D03*
D11*
X192840100Y-79407050D03*
D10*
X173790100Y-84707050D03*
D11*
X173790100Y-82207050D03*
D12*
X173790100Y-76907050D03*
D11*
X173790100Y-79407050D03*
D10*
X230940100Y-84707050D03*
D11*
X230940100Y-82207050D03*
X230940100Y-79407050D03*
D12*
X230940100Y-76907050D03*
D10*
X36788850Y-84707050D03*
D11*
X36788850Y-82207050D03*
X36788850Y-79407050D03*
D12*
X36788850Y-76907050D03*
D11*
X35677600Y-120307050D03*
D10*
X35677600Y-122807050D03*
D12*
X35677600Y-115007050D03*
D11*
X35677600Y-117507050D03*
X58220100Y-82207050D03*
D10*
X58220100Y-84707050D03*
D11*
X58220100Y-79407050D03*
D12*
X58220100Y-76907050D03*
D11*
X64252600Y-101257050D03*
D10*
X64252600Y-103757050D03*
D12*
X64252600Y-95957050D03*
D11*
X64252600Y-98457050D03*
X54727600Y-120307050D03*
D10*
X54727600Y-122807050D03*
D12*
X54727600Y-115007050D03*
D11*
X54727600Y-117507050D03*
D10*
X83302600Y-103757050D03*
D11*
X83302600Y-101257050D03*
X83302600Y-98457050D03*
D12*
X83302600Y-95957050D03*
D11*
X73777600Y-120307050D03*
D10*
X73777600Y-122807050D03*
D11*
X73777600Y-117507050D03*
D12*
X73777600Y-115007050D03*
D11*
X96320100Y-82207050D03*
D10*
X96320100Y-84707050D03*
D11*
X96320100Y-79407050D03*
D12*
X96320100Y-76907050D03*
D11*
X115370100Y-82207050D03*
D10*
X115370100Y-84707050D03*
D11*
X115370100Y-79407050D03*
D12*
X115370100Y-76907050D03*
D11*
X121402600Y-101257050D03*
D10*
X121402600Y-103757050D03*
D12*
X121402600Y-95957050D03*
D11*
X121402600Y-98457050D03*
D10*
X134420100Y-84707050D03*
D11*
X134420100Y-82207050D03*
D12*
X134420100Y-76907050D03*
D11*
X134420100Y-79407050D03*
D10*
X140452600Y-103757050D03*
D11*
X140452600Y-101257050D03*
X140452600Y-98457050D03*
D12*
X140452600Y-95957050D03*
D10*
X153470100Y-84707050D03*
D11*
X153470100Y-82207050D03*
X153470100Y-79407050D03*
D12*
X153470100Y-76907050D03*
D10*
X159502600Y-103757050D03*
D11*
X159502600Y-101257050D03*
X159502600Y-98457050D03*
D12*
X159502600Y-95957050D03*
D10*
X178552600Y-122807050D03*
D11*
X178552600Y-120307050D03*
X178552600Y-117507050D03*
D12*
X178552600Y-115007050D03*
D11*
X178552600Y-101257050D03*
D10*
X178552600Y-103757050D03*
D12*
X178552600Y-95957050D03*
D11*
X178552600Y-98457050D03*
D10*
X197602600Y-122807050D03*
D11*
X197602600Y-120307050D03*
X197602600Y-117507050D03*
D12*
X197602600Y-115007050D03*
D11*
X197602600Y-101257050D03*
D10*
X197602600Y-103757050D03*
D11*
X197602600Y-98457050D03*
D12*
X197602600Y-95957050D03*
D10*
X216652600Y-122807050D03*
D11*
X216652600Y-120307050D03*
X216652600Y-117507050D03*
D12*
X216652600Y-115007050D03*
D11*
X216652600Y-101257050D03*
D10*
X216652600Y-103757050D03*
D11*
X216652600Y-98457050D03*
D12*
X216652600Y-95957050D03*
D11*
X235702600Y-101257050D03*
D10*
X235702600Y-103757050D03*
D11*
X235702600Y-98457050D03*
D12*
X235702600Y-95957050D03*
D10*
X254752600Y-103757050D03*
D11*
X254752600Y-101257050D03*
D12*
X254752600Y-95957050D03*
D11*
X254752600Y-98457050D03*
D10*
X265136800Y-120256727D03*
D13*
X267636800Y-120256727D03*
X270436800Y-120256727D03*
D12*
X272936800Y-120256727D03*
D10*
X77333600Y-84738800D03*
D11*
X77333600Y-82238800D03*
X77333600Y-79438800D03*
D12*
X77333600Y-76938800D03*
D11*
X235702600Y-120307050D03*
D10*
X235702600Y-122807050D03*
D12*
X235702600Y-115007050D03*
D11*
X235702600Y-117507050D03*
X207127600Y-63188800D03*
D10*
X207127600Y-65688800D03*
D11*
X207127600Y-60388800D03*
D12*
X207127600Y-57888800D03*
D10*
X91557600Y-65688800D03*
D11*
X91557600Y-63188800D03*
D12*
X91557600Y-57888800D03*
D11*
X91557600Y-60388800D03*
D10*
X72507600Y-65688800D03*
D11*
X72507600Y-63188800D03*
D12*
X72507600Y-57888800D03*
D11*
X72507600Y-60388800D03*
D10*
X53457600Y-65688800D03*
D11*
X53457600Y-63188800D03*
D12*
X53457600Y-57888800D03*
D11*
X53457600Y-60388800D03*
X34407600Y-63188800D03*
D10*
X34407600Y-65688800D03*
D12*
X34407600Y-57888800D03*
D11*
X34407600Y-60388800D03*
X110607600Y-63188800D03*
D10*
X110607600Y-65688800D03*
D11*
X110607600Y-60388800D03*
D12*
X110607600Y-57888800D03*
D11*
X188077600Y-63188800D03*
D10*
X188077600Y-65688800D03*
D11*
X188077600Y-60388800D03*
D12*
X188077600Y-57888800D03*
D10*
X129657600Y-65688800D03*
D11*
X129657600Y-63188800D03*
D12*
X129657600Y-57888800D03*
D11*
X129657600Y-60388800D03*
X226177600Y-63188800D03*
D10*
X226177600Y-65688800D03*
D11*
X226177600Y-60388800D03*
D12*
X226177600Y-57888800D03*
D10*
X169027600Y-65688800D03*
D11*
X169027600Y-63188800D03*
X169027600Y-60388800D03*
D12*
X169027600Y-57888800D03*
D10*
X148707600Y-65688800D03*
D11*
X148707600Y-63188800D03*
D12*
X148707600Y-57888800D03*
D11*
X148707600Y-60388800D03*
X249990100Y-63188800D03*
D10*
X249990100Y-65688800D03*
D11*
X249990100Y-60388800D03*
D12*
X249990100Y-57888800D03*
D11*
X252371350Y-82207050D03*
D10*
X252371350Y-84707050D03*
D12*
X252371350Y-76907050D03*
D11*
X252371350Y-79407050D03*
X254752600Y-120307050D03*
D10*
X254752600Y-122807050D03*
D12*
X254752600Y-115007050D03*
D11*
X254752600Y-117507050D03*
X40440100Y-101257050D03*
D10*
X40440100Y-103757050D03*
D12*
X40440100Y-95957050D03*
D11*
X40440100Y-98457050D03*
X102352600Y-101257050D03*
D10*
X102352600Y-103757050D03*
D11*
X102352600Y-98457050D03*
D12*
X102352600Y-95957050D03*
D14*
X192840100Y-126892050D03*
X78540100Y-126892050D03*
D15*
X192840100Y-111652050D03*
X78540100Y-111652050D03*
D16*
X258165600Y-127036800D03*
X279953600Y-127036800D03*
D17*
X135737600Y-90220800D03*
X250990100Y-110096300D03*
X250990100Y-71424800D03*
X20421600Y-110032800D03*
X20421600Y-71424800D03*
D16*
X258165600Y-55676800D03*
X279953600Y-55676800D03*
D15*
X26152600Y-62757050D03*
D18*
X21072600Y-62757050D03*
X31232600Y-62757050D03*
D19*
X22342600Y-60217050D03*
X28692600Y-57677050D03*
D18*
X33613850Y-81807050D03*
X23453850Y-81807050D03*
D15*
X28533850Y-81807050D03*
D19*
X24723850Y-79267050D03*
X31073850Y-76727050D03*
D18*
X35995100Y-100857050D03*
D15*
X30915100Y-100857050D03*
D18*
X25835100Y-100857050D03*
D19*
X27105100Y-98317050D03*
X33455100Y-95777050D03*
D18*
X31232600Y-119907050D03*
X21072600Y-119907050D03*
D15*
X26152600Y-119907050D03*
D19*
X22342600Y-117367050D03*
X28692600Y-114827050D03*
D18*
X50282600Y-62757050D03*
D15*
X45202600Y-62757050D03*
D18*
X40122600Y-62757050D03*
D19*
X41392600Y-60217050D03*
X47742600Y-57677050D03*
D18*
X44885100Y-81807050D03*
X55045100Y-81807050D03*
D15*
X49965100Y-81807050D03*
D19*
X46155100Y-79267050D03*
X52505100Y-76727050D03*
D18*
X49647600Y-100857050D03*
D15*
X54727600Y-100857050D03*
D18*
X59807600Y-100857050D03*
D19*
X50917600Y-98317050D03*
X57267600Y-95777050D03*
D15*
X45202600Y-119907050D03*
D18*
X50282600Y-119907050D03*
X40122600Y-119907050D03*
D19*
X41392600Y-117367050D03*
X47742600Y-114827050D03*
D18*
X69332600Y-62757050D03*
D15*
X64252600Y-62757050D03*
D18*
X59172600Y-62757050D03*
D19*
X60442600Y-60217050D03*
X66792600Y-57677050D03*
D15*
X69015100Y-81807050D03*
D18*
X74095100Y-81807050D03*
X63935100Y-81807050D03*
D19*
X65205100Y-79267050D03*
X71555100Y-76727050D03*
D18*
X68697600Y-100857050D03*
D15*
X73777600Y-100857050D03*
D18*
X78857600Y-100857050D03*
D19*
X69967600Y-98317050D03*
X76317600Y-95777050D03*
D18*
X69332600Y-119907050D03*
D15*
X64252600Y-119907050D03*
D18*
X59172600Y-119907050D03*
D19*
X60442600Y-117367050D03*
X66792600Y-114827050D03*
D18*
X88382600Y-62757050D03*
X78222600Y-62757050D03*
D15*
X83302600Y-62757050D03*
D19*
X79492600Y-60217050D03*
X85842600Y-57677050D03*
D18*
X82985100Y-81807050D03*
D15*
X88065100Y-81807050D03*
D18*
X93145100Y-81807050D03*
D19*
X84255100Y-79267050D03*
X90605100Y-76727050D03*
D18*
X97907600Y-100857050D03*
D15*
X92827600Y-100857050D03*
D18*
X87747600Y-100857050D03*
D19*
X89017600Y-98317050D03*
X95367600Y-95777050D03*
D18*
X78222600Y-119907050D03*
X88382600Y-119907050D03*
D15*
X83302600Y-119907050D03*
D19*
X79492600Y-117367050D03*
X85842600Y-114827050D03*
D18*
X107432600Y-62757050D03*
X97272600Y-62757050D03*
D15*
X102352600Y-62757050D03*
D19*
X98542600Y-60217050D03*
X104892600Y-57677050D03*
D18*
X112195100Y-81807050D03*
D15*
X107115100Y-81807050D03*
D18*
X102035100Y-81807050D03*
D19*
X103305100Y-79267050D03*
X109655100Y-76727050D03*
D18*
X116957600Y-100857050D03*
X106797600Y-100857050D03*
D15*
X111877600Y-100857050D03*
D19*
X108067600Y-98317050D03*
X114417600Y-95777050D03*
D15*
X104733850Y-119907050D03*
D18*
X109813850Y-119907050D03*
X99653850Y-119907050D03*
D19*
X100923850Y-117367050D03*
X107273850Y-114827050D03*
D15*
X121402600Y-62757050D03*
D18*
X126482600Y-62757050D03*
X116322600Y-62757050D03*
D19*
X117592600Y-60217050D03*
X123942600Y-57677050D03*
D15*
X126165100Y-81807050D03*
D18*
X121085100Y-81807050D03*
X131245100Y-81807050D03*
D19*
X122355100Y-79267050D03*
X128705100Y-76727050D03*
D18*
X136007600Y-100857050D03*
D15*
X130927600Y-100857050D03*
D18*
X125847600Y-100857050D03*
D19*
X127117600Y-98317050D03*
X133467600Y-95777050D03*
D18*
X145532600Y-62757050D03*
D15*
X140452600Y-62757050D03*
D18*
X135372600Y-62757050D03*
D19*
X136642600Y-60217050D03*
X142992600Y-57677050D03*
D15*
X145215100Y-81807050D03*
D18*
X140135100Y-81807050D03*
X150295100Y-81807050D03*
D19*
X141405100Y-79267050D03*
X147755100Y-76727050D03*
D18*
X144897600Y-100857050D03*
D15*
X149977600Y-100857050D03*
D18*
X155057600Y-100857050D03*
D19*
X146167600Y-98317050D03*
X152517600Y-95777050D03*
D15*
X159502600Y-62757050D03*
D18*
X164582600Y-62757050D03*
X154422600Y-62757050D03*
D19*
X155692600Y-60217050D03*
X162042600Y-57677050D03*
D15*
X164265100Y-81807050D03*
D18*
X169345100Y-81807050D03*
X159185100Y-81807050D03*
D19*
X160455100Y-79267050D03*
X166805100Y-76727050D03*
D15*
X169027600Y-100857050D03*
D18*
X174107600Y-100857050D03*
X163947600Y-100857050D03*
D19*
X165217600Y-98317050D03*
X171567600Y-95777050D03*
D18*
X182997600Y-119907050D03*
X193157600Y-119907050D03*
D15*
X188077600Y-119907050D03*
D19*
X184267600Y-117367050D03*
X190617600Y-114827050D03*
D15*
X178552600Y-62757050D03*
D18*
X173472600Y-62757050D03*
X183632600Y-62757050D03*
D19*
X174742600Y-60217050D03*
X181092600Y-57677050D03*
D18*
X188395100Y-81807050D03*
D15*
X183315100Y-81807050D03*
D18*
X178235100Y-81807050D03*
D19*
X179505100Y-79267050D03*
X185855100Y-76727050D03*
D18*
X182997600Y-100857050D03*
D15*
X188077600Y-100857050D03*
D18*
X193157600Y-100857050D03*
D19*
X184267600Y-98317050D03*
X190617600Y-95777050D03*
D18*
X202047600Y-119907050D03*
X212207600Y-119907050D03*
D15*
X207127600Y-119907050D03*
D19*
X203317600Y-117367050D03*
X209667600Y-114827050D03*
D18*
X192522600Y-62757050D03*
X202682600Y-62757050D03*
D15*
X197602600Y-62757050D03*
D19*
X193792600Y-60217050D03*
X200142600Y-57677050D03*
D18*
X197285100Y-81807050D03*
X207445100Y-81807050D03*
D15*
X202365100Y-81807050D03*
D19*
X198555100Y-79267050D03*
X204905100Y-76727050D03*
D15*
X207127600Y-100857050D03*
D18*
X212207600Y-100857050D03*
X202047600Y-100857050D03*
D19*
X203317600Y-98317050D03*
X209667600Y-95777050D03*
D18*
X221097600Y-119938800D03*
D15*
X226177600Y-119938800D03*
D18*
X231257600Y-119938800D03*
D19*
X222367600Y-117398800D03*
X228717600Y-114858800D03*
D15*
X216652600Y-62757050D03*
D18*
X211572600Y-62757050D03*
X221732600Y-62757050D03*
D19*
X212842600Y-60217050D03*
X219192600Y-57677050D03*
D18*
X216335100Y-81807050D03*
D15*
X221415100Y-81807050D03*
D18*
X226495100Y-81807050D03*
D19*
X217605100Y-79267050D03*
X223955100Y-76727050D03*
D18*
X231257600Y-100857050D03*
D15*
X226177600Y-100857050D03*
D18*
X221097600Y-100857050D03*
D19*
X222367600Y-98317050D03*
X228717600Y-95777050D03*
D18*
X250307600Y-119907050D03*
D15*
X245227600Y-119907050D03*
D18*
X240147600Y-119907050D03*
D19*
X241417600Y-117367050D03*
X247767600Y-114827050D03*
D18*
X245545100Y-62757050D03*
X235385100Y-62757050D03*
D15*
X240465100Y-62757050D03*
D19*
X236655100Y-60217050D03*
X243005100Y-57677050D03*
D15*
X242846350Y-81807050D03*
D18*
X247926350Y-81807050D03*
X237766350Y-81807050D03*
D19*
X239036350Y-79267050D03*
X245386350Y-76727050D03*
D15*
X245227600Y-100857050D03*
D18*
X240147600Y-100857050D03*
X250307600Y-100857050D03*
D19*
X241417600Y-98317050D03*
X247767600Y-95777050D03*
D20*
X265176000Y-89664217D03*
X267716000Y-89664217D03*
X270256000Y-89664217D03*
X272796000Y-89664217D03*
D21*
X271536800Y-101678037D03*
X266536800Y-101678037D03*
X269036800Y-101678037D03*
D22*
X274636800Y-109178037D03*
X263436800Y-109178037D03*
D21*
X266536800Y-116178037D03*
X271536800Y-116178037D03*
D14*
X123783850Y-126892050D03*
X147596350Y-126892050D03*
D15*
X123783850Y-111652050D03*
D18*
X130610100Y-119907050D03*
X140770100Y-119907050D03*
D15*
X147596350Y-111652050D03*
X135690100Y-119907050D03*
D19*
X131880100Y-117367050D03*
X138230100Y-114827050D03*
D15*
X157226000Y-119888000D03*
D18*
X152146000Y-119888000D03*
D15*
X145319750Y-111633000D03*
D18*
X162306000Y-119888000D03*
D14*
X145319750Y-126873000D03*
X169132250Y-126873000D03*
D15*
X169132250Y-111633000D03*
D19*
X153416000Y-117348000D03*
X159766000Y-114808000D03*
D15*
X166646350Y-119907050D03*
D18*
X161566350Y-119907050D03*
X171726350Y-119907050D03*
D19*
X162836350Y-117367050D03*
X169186350Y-114827050D03*
D18*
X109220000Y-119888000D03*
X119380000Y-119888000D03*
D15*
X102393750Y-111633000D03*
D14*
X102393750Y-126873000D03*
X126206250Y-126873000D03*
D15*
X114300000Y-119888000D03*
X126206250Y-111633000D03*
D19*
X110490000Y-117348000D03*
X116840000Y-114808000D03*
D10*
X93853000Y-122807050D03*
D11*
X93853000Y-120307050D03*
D12*
X93853000Y-115007050D03*
D11*
X93853000Y-117507050D03*
X96012000Y-120307050D03*
D10*
X96012000Y-122807050D03*
D12*
X96012000Y-115007050D03*
D11*
X96012000Y-117507050D03*
D10*
X91694000Y-122807050D03*
D11*
X91694000Y-120307050D03*
D12*
X91694000Y-115007050D03*
D11*
X91694000Y-117507050D03*
D23*
X269020000Y-80600000D03*
X271560000Y-80600000D03*
X274100000Y-80600000D03*
D24*
X264625000Y-96797500D03*
D25*
X268125000Y-93097500D03*
X261115000Y-93097500D03*
D18*
X267125000Y-95587500D03*
X262125000Y-95587500D03*
D26*
X276655600Y-57736477D03*
D23*
X276655600Y-60276477D03*
X276655600Y-62816477D03*
X276655600Y-65356477D03*
X276655600Y-67896477D03*
X276655600Y-70436477D03*
X276655600Y-72976477D03*
X276655600Y-75516477D03*
X276655600Y-78056477D03*
X276655600Y-80596477D03*
X276655600Y-83136477D03*
X276427000Y-85676477D03*
X261415600Y-85676477D03*
X261415600Y-83136477D03*
X261415600Y-80596477D03*
X261415600Y-78056477D03*
X261415600Y-75516477D03*
X261415600Y-72976477D03*
X261415600Y-70436477D03*
X261415600Y-67896477D03*
X261415600Y-65356477D03*
X261415600Y-62816477D03*
X261415600Y-60276477D03*
X261415600Y-57736477D03*
X274115600Y-85676477D03*
X271575600Y-85676477D03*
X269035600Y-85676477D03*
X266495600Y-85676477D03*
X263955600Y-85676477D03*
D27*
X257700000Y-60850000D03*
D28*
X255700000Y-60850000D03*
M02*
