%TF.GenerationSoftware,KiCad,Pcbnew,(5.99.0-11526-gd613292b67)*%
%TF.CreationDate,2021-11-24T22:41:26-05:00*%
%TF.ProjectId,Platefile,506c6174-6566-4696-9c65-2e6b69636164,rev?*%
%TF.SameCoordinates,Original*%
%TF.FileFunction,Profile,NP*%
%FSLAX46Y46*%
G04 Gerber Fmt 4.6, Leading zero omitted, Abs format (unit mm)*
G04 Created by KiCad (PCBNEW (5.99.0-11526-gd613292b67)) date 2021-11-24 22:41:26*
%MOMM*%
%LPD*%
G01*
G04 APERTURE LIST*
%TA.AperFunction,Profile*%
%ADD10C,0.250000*%
%TD*%
G04 APERTURE END LIST*
D10*
X32990084Y-76815460D02*
X35491984Y-76815460D01*
X37003794Y-72899800D02*
G75*
G02*
X35491984Y-76815460I-1511810J-1665980D01*
G01*
X37003795Y-72899800D02*
X46974200Y-72899800D01*
X46974200Y-72899800D02*
X46974200Y-59050800D01*
X46974200Y-59050800D02*
X33124860Y-59050800D01*
X33124860Y-59050800D02*
X33124860Y-72316100D01*
X33124860Y-72316100D02*
X32990084Y-72316100D01*
X32990084Y-76815460D02*
G75*
G02*
X32990084Y-72316100I0J2249680D01*
G01*
X71225000Y-72899800D02*
X85074000Y-72899800D01*
X85074000Y-72899800D02*
X85074000Y-59050800D01*
X85074000Y-59050800D02*
X71225000Y-59050800D01*
X71225000Y-59050800D02*
X71225000Y-72899800D01*
X109325000Y-72899800D02*
X123174000Y-72899800D01*
X123174000Y-72899800D02*
X123174000Y-59050800D01*
X123174000Y-59050800D02*
X109325000Y-59050800D01*
X109325000Y-59050800D02*
X109325000Y-72899800D01*
X147425000Y-72899800D02*
X161274000Y-72899800D01*
X161274000Y-72899800D02*
X161274000Y-59050800D01*
X161274000Y-59050800D02*
X147425000Y-59050800D01*
X147425000Y-59050800D02*
X147425000Y-72899800D01*
X185525000Y-72899800D02*
X199374000Y-72899800D01*
X199374000Y-72899800D02*
X199374000Y-59050800D01*
X199374000Y-59050800D02*
X185525000Y-59050800D01*
X185525000Y-59050800D02*
X185525000Y-72899800D01*
X223625000Y-72899800D02*
X237474000Y-72899800D01*
X237474000Y-72899800D02*
X237474000Y-59050800D01*
X237474000Y-59050800D02*
X223625000Y-59050800D01*
X223625000Y-59050800D02*
X223625000Y-72899800D01*
X35506120Y-91949800D02*
X49355400Y-91949800D01*
X49355400Y-91949800D02*
X49355400Y-78100800D01*
X49355400Y-78100800D02*
X35506120Y-78100800D01*
X35506120Y-78100800D02*
X35506120Y-91949800D01*
X75986100Y-91949800D02*
X89836500Y-91949800D01*
X89836500Y-91949800D02*
X89836500Y-78100800D01*
X89836500Y-78100800D02*
X75986100Y-78100800D01*
X75986100Y-78100800D02*
X75986100Y-91949800D01*
X114086100Y-91949800D02*
X127936500Y-91949800D01*
X127936500Y-91949800D02*
X127936500Y-78100800D01*
X127936500Y-78100800D02*
X114086100Y-78100800D01*
X114086100Y-78100800D02*
X114086100Y-91949800D01*
X146987000Y-78100800D02*
X133136000Y-78100800D01*
X133136000Y-78100800D02*
X133136000Y-91949800D01*
X133136000Y-91949800D02*
X146564940Y-91949800D01*
X148313100Y-95615461D02*
G75*
G02*
X146564940Y-91949800I0J2249681D01*
G01*
X148313100Y-95615460D02*
X150815000Y-95615460D01*
X152563159Y-91949800D02*
G75*
G02*
X150815000Y-95615460I-1748159J-1415980D01*
G01*
X152563159Y-91949800D02*
X166037000Y-91949800D01*
X166037000Y-91949800D02*
X166037000Y-78100800D01*
X166037000Y-78100800D02*
X152186000Y-78100800D01*
X152186000Y-78100800D02*
X152186000Y-91582127D01*
X150815000Y-91116100D02*
G75*
G02*
X152186000Y-91582127I0J-2249680D01*
G01*
X150815000Y-91116100D02*
X148313100Y-91116100D01*
X146987000Y-91548497D02*
G75*
G02*
X148313100Y-91116100I1326100J-1817283D01*
G01*
X146987000Y-91548497D02*
X146987000Y-78100800D01*
X190286000Y-91949800D02*
X204137000Y-91949800D01*
X204137000Y-91949800D02*
X204137000Y-78100800D01*
X204137000Y-78100800D02*
X190286000Y-78100800D01*
X190286000Y-78100800D02*
X190286000Y-91949800D01*
X228386000Y-91949800D02*
X242237000Y-91949800D01*
X242237000Y-91949800D02*
X242237000Y-78100800D01*
X242237000Y-78100800D02*
X228386000Y-78100800D01*
X228386000Y-78100800D02*
X228386000Y-91949800D01*
X37885990Y-111000000D02*
X51736700Y-111000000D01*
X51736700Y-111000000D02*
X51736700Y-97150800D01*
X51736700Y-97150800D02*
X37885990Y-97150800D01*
X37885990Y-97150800D02*
X37885990Y-111000000D01*
X80750000Y-111000000D02*
X94599000Y-111000000D01*
X94599000Y-111000000D02*
X94599000Y-97150800D01*
X94599000Y-97150800D02*
X80750000Y-97150800D01*
X80750000Y-97150800D02*
X80750000Y-111000000D01*
X118848600Y-111000000D02*
X132699000Y-111000000D01*
X132699000Y-111000000D02*
X132699000Y-97150800D01*
X132699000Y-97150800D02*
X118848600Y-97150800D01*
X118848600Y-97150800D02*
X118848600Y-111000000D01*
X156949000Y-111000000D02*
X170799000Y-111000000D01*
X170799000Y-111000000D02*
X170799000Y-97150800D01*
X170799000Y-97150800D02*
X156949000Y-97150800D01*
X156949000Y-97150800D02*
X156949000Y-111000000D01*
X195050000Y-111000000D02*
X208899000Y-111000000D01*
X208899000Y-111000000D02*
X208899000Y-97150800D01*
X208899000Y-97150800D02*
X195050000Y-97150800D01*
X195050000Y-97150800D02*
X195050000Y-111000000D01*
X233150000Y-111000000D02*
X246999000Y-111000000D01*
X246999000Y-111000000D02*
X246999000Y-97150800D01*
X246999000Y-97150800D02*
X233150000Y-97150800D01*
X233150000Y-97150800D02*
X233150000Y-111000000D01*
X33124860Y-130049960D02*
X46974200Y-130049960D01*
X46974200Y-130049960D02*
X46974200Y-116200700D01*
X46974200Y-116200700D02*
X33124860Y-116200700D01*
X33124860Y-116200700D02*
X33124860Y-130049960D01*
X71225000Y-130049960D02*
X85074000Y-130049960D01*
X85074000Y-130049960D02*
X85074000Y-116200700D01*
X85074000Y-116200700D02*
X71225000Y-116200700D01*
X71225000Y-116200700D02*
X71225000Y-130049960D01*
X195050000Y-130049960D02*
X208899000Y-130049960D01*
X208899000Y-130049960D02*
X208899000Y-116200700D01*
X208899000Y-116200700D02*
X195050000Y-116200700D01*
X195050000Y-116200700D02*
X195050000Y-130049960D01*
X233150000Y-130049960D02*
X246999000Y-130049960D01*
X246999000Y-130049960D02*
X246999000Y-116200700D01*
X246999000Y-116200700D02*
X233150000Y-116200700D01*
X233150000Y-116200700D02*
X233150000Y-130049960D01*
X111706300Y-116200700D02*
X111706300Y-130049960D01*
X111706300Y-130049960D02*
X114679800Y-130049960D01*
X114679800Y-130049960D02*
X114679800Y-131020100D01*
X114679800Y-131020100D02*
X117830100Y-131020100D01*
X117830100Y-131020100D02*
X117830100Y-130049960D01*
X117830100Y-130049960D02*
X135080000Y-130049960D01*
X135080000Y-130049960D02*
X135080000Y-129819830D01*
X135080000Y-129819830D02*
X136111000Y-129819830D01*
X136111000Y-129819830D02*
X136111000Y-131020100D01*
X136111000Y-131020100D02*
X141630000Y-131020100D01*
X141630000Y-131020100D02*
X141630000Y-129819830D01*
X141630000Y-129819830D02*
X142661000Y-129819830D01*
X142661000Y-129819830D02*
X142661000Y-130049960D01*
X142661000Y-130049960D02*
X156512000Y-130049960D01*
X156512000Y-130049960D02*
X156512000Y-129819830D01*
X156512000Y-129819830D02*
X157542000Y-129819830D01*
X157542000Y-129819830D02*
X157542000Y-131020100D01*
X157542000Y-131020100D02*
X163062000Y-131020100D01*
X163062000Y-131020100D02*
X163062000Y-129819830D01*
X163062000Y-129819830D02*
X164092000Y-129819830D01*
X164092000Y-129819830D02*
X164092000Y-130049960D01*
X164092000Y-130049960D02*
X181342000Y-130049960D01*
X181342000Y-130049960D02*
X181342000Y-131020100D01*
X181342000Y-131020100D02*
X184493000Y-131020100D01*
X184493000Y-131020100D02*
X184493000Y-130049960D01*
X184493000Y-130049960D02*
X187468000Y-130049960D01*
X187468000Y-130049960D02*
X187468000Y-116200700D01*
X187468000Y-116200700D02*
X164092000Y-116200700D01*
X164092000Y-116200700D02*
X164092000Y-117669700D01*
X164092000Y-117669700D02*
X156512000Y-117669700D01*
X156512000Y-117669700D02*
X156512000Y-116200700D01*
X156512000Y-116200700D02*
X142661000Y-116200700D01*
X142661000Y-116200700D02*
X142661000Y-117669700D01*
X142661000Y-117669700D02*
X135080000Y-117669700D01*
X135080000Y-117669700D02*
X135080000Y-116200700D01*
X135080000Y-116200700D02*
X111706300Y-116200700D01*
X30450084Y-58876100D02*
G75*
G02*
X32950084Y-56376100I2500000J0D01*
G01*
X268725000Y-56376100D02*
X32950084Y-56376100D01*
X268725000Y-132726113D02*
X268725000Y-56376100D01*
X32950084Y-132726113D02*
X268725000Y-132726113D01*
X32950084Y-132726113D02*
G75*
G02*
X30450084Y-130226113I0J2500000D01*
G01*
X30450084Y-58876100D02*
X30450084Y-130226113D01*
X252200000Y-130049960D02*
X266049000Y-130049960D01*
X266049000Y-130049960D02*
X266049000Y-116200700D01*
X266049000Y-116200700D02*
X252200000Y-116200700D01*
X252200000Y-116200700D02*
X252200000Y-130049960D01*
X214100000Y-130049960D02*
X227949000Y-130049960D01*
X227949000Y-130049960D02*
X227949000Y-116200700D01*
X227949000Y-116200700D02*
X214100000Y-116200700D01*
X214100000Y-116200700D02*
X214100000Y-130049960D01*
X90275000Y-130049960D02*
X104124000Y-130049960D01*
X104124000Y-130049960D02*
X104124000Y-116200700D01*
X104124000Y-116200700D02*
X90275000Y-116200700D01*
X90275000Y-116200700D02*
X90275000Y-130049960D01*
X52174900Y-130049960D02*
X66024000Y-130049960D01*
X66024000Y-130049960D02*
X66024000Y-116200700D01*
X66024000Y-116200700D02*
X52174900Y-116200700D01*
X52174900Y-116200700D02*
X52174900Y-130049960D01*
X266089545Y-110986839D02*
G75*
G02*
X266057985Y-115486089I-15780J-2249625D01*
G01*
X266089545Y-110986840D02*
X266049000Y-110986555D01*
X266049000Y-110986555D02*
X266049000Y-97150800D01*
X266049000Y-97150800D02*
X252200000Y-97150800D01*
X252200000Y-97150800D02*
X252200000Y-111000000D01*
X252200000Y-111000000D02*
X263211594Y-111000000D01*
X263580200Y-115468708D02*
G75*
G02*
X263211594Y-111000000I1998J2249721D01*
G01*
X263580200Y-115468709D02*
X266057985Y-115486089D01*
X214100000Y-111000000D02*
X227949000Y-111000000D01*
X227949000Y-111000000D02*
X227949000Y-97150800D01*
X227949000Y-97150800D02*
X214100000Y-97150800D01*
X214100000Y-97150800D02*
X214100000Y-111000000D01*
X175999000Y-111000000D02*
X189849000Y-111000000D01*
X189849000Y-111000000D02*
X189849000Y-97150800D01*
X189849000Y-97150800D02*
X175999000Y-97150800D01*
X175999000Y-97150800D02*
X175999000Y-111000000D01*
X137899000Y-111000000D02*
X151749000Y-111000000D01*
X151749000Y-111000000D02*
X151749000Y-97150800D01*
X151749000Y-97150800D02*
X137899000Y-97150800D01*
X137899000Y-97150800D02*
X137899000Y-111000000D01*
X99800000Y-111000000D02*
X113649000Y-111000000D01*
X113649000Y-111000000D02*
X113649000Y-97150800D01*
X113649000Y-97150800D02*
X99800000Y-97150800D01*
X99800000Y-97150800D02*
X99800000Y-111000000D01*
X61699900Y-111000000D02*
X75549000Y-111000000D01*
X75549000Y-111000000D02*
X75549000Y-97150800D01*
X75549000Y-97150800D02*
X61699900Y-97150800D01*
X61699900Y-97150800D02*
X61699900Y-111000000D01*
X249817000Y-91949800D02*
X263668000Y-91949800D01*
X263668000Y-91949800D02*
X263668000Y-78100800D01*
X263668000Y-78100800D02*
X249817000Y-78100800D01*
X249817000Y-78100800D02*
X249817000Y-91949800D01*
X209336000Y-91949800D02*
X223187000Y-91949800D01*
X223187000Y-91949800D02*
X223187000Y-78100800D01*
X223187000Y-78100800D02*
X209336000Y-78100800D01*
X209336000Y-78100800D02*
X209336000Y-91949800D01*
X171236000Y-91949800D02*
X185087000Y-91949800D01*
X185087000Y-91949800D02*
X185087000Y-78100800D01*
X185087000Y-78100800D02*
X171236000Y-78100800D01*
X171236000Y-78100800D02*
X171236000Y-91949800D01*
X95036100Y-91949800D02*
X108886500Y-91949800D01*
X108886500Y-91949800D02*
X108886500Y-78100800D01*
X108886500Y-78100800D02*
X95036100Y-78100800D01*
X95036100Y-78100800D02*
X95036100Y-91949800D01*
X56936000Y-91949800D02*
X70786500Y-91949800D01*
X70786500Y-91949800D02*
X70786500Y-78100800D01*
X70786500Y-78100800D02*
X56936000Y-78100800D01*
X56936000Y-78100800D02*
X56936000Y-91949800D01*
X247436000Y-72899800D02*
X261287000Y-72899800D01*
X261287000Y-72899800D02*
X261287000Y-59050800D01*
X261287000Y-59050800D02*
X247436000Y-59050800D01*
X247436000Y-59050800D02*
X247436000Y-72899800D01*
X204575000Y-72899800D02*
X218424000Y-72899800D01*
X218424000Y-72899800D02*
X218424000Y-59050800D01*
X218424000Y-59050800D02*
X204575000Y-59050800D01*
X204575000Y-59050800D02*
X204575000Y-72899800D01*
X166475000Y-72899800D02*
X180324000Y-72899800D01*
X180324000Y-72899800D02*
X180324000Y-59050800D01*
X180324000Y-59050800D02*
X166475000Y-59050800D01*
X166475000Y-59050800D02*
X166475000Y-72899800D01*
X128375000Y-72899800D02*
X142224000Y-72899800D01*
X142224000Y-72899800D02*
X142224000Y-59050800D01*
X142224000Y-59050800D02*
X128375000Y-59050800D01*
X128375000Y-59050800D02*
X128375000Y-72899800D01*
X90275000Y-72899800D02*
X104124000Y-72899800D01*
X104124000Y-72899800D02*
X104124000Y-59050800D01*
X104124000Y-59050800D02*
X90275000Y-59050800D01*
X90275000Y-59050800D02*
X90275000Y-72899800D01*
X52174900Y-72899800D02*
X66024000Y-72899800D01*
X66024000Y-72899800D02*
X66024000Y-59050800D01*
X66024000Y-59050800D02*
X52174900Y-59050800D01*
X52174900Y-59050800D02*
X52174900Y-72899800D01*
X35491984Y-110926753D02*
G75*
G02*
X35491984Y-115426113I0J-2249680D01*
G01*
X35491984Y-110926753D02*
X32990084Y-110926753D01*
X32990084Y-115426113D02*
G75*
G02*
X32990084Y-110926753I0J2249680D01*
G01*
X32990084Y-115426113D02*
X35491984Y-115426113D01*
X266065000Y-72316100D02*
G75*
G02*
X266065000Y-76815460I0J-2249680D01*
G01*
X266065000Y-72316100D02*
X263563100Y-72316100D01*
X263563100Y-76815460D02*
G75*
G02*
X263563100Y-72316100I0J2249680D01*
G01*
X263563100Y-76815460D02*
X266065000Y-76815460D01*
M02*
