%TF.GenerationSoftware,KiCad,Pcbnew,(5.99.0-11526-gd613292b67)*%
%TF.CreationDate,2021-11-07T02:30:45-05:00*%
%TF.ProjectId,Platefile,506c6174-6566-4696-9c65-2e6b69636164,rev?*%
%TF.SameCoordinates,Original*%
%TF.FileFunction,Profile,NP*%
%FSLAX46Y46*%
G04 Gerber Fmt 4.6, Leading zero omitted, Abs format (unit mm)*
G04 Created by KiCad (PCBNEW (5.99.0-11526-gd613292b67)) date 2021-11-07 02:30:45*
%MOMM*%
%LPD*%
G01*
G04 APERTURE LIST*
%TA.AperFunction,Profile*%
%ADD10C,0.250000*%
%TD*%
G04 APERTURE END LIST*
D10*
X32162318Y-73148694D02*
X46011658Y-73148694D01*
X46011658Y-73148694D02*
X46011658Y-59299694D01*
X46011658Y-59299694D02*
X32162318Y-59299694D01*
X32162318Y-59299694D02*
X32162318Y-73148694D01*
X70262458Y-73148694D02*
X84111458Y-73148694D01*
X84111458Y-73148694D02*
X84111458Y-59299694D01*
X84111458Y-59299694D02*
X70262458Y-59299694D01*
X70262458Y-59299694D02*
X70262458Y-73148694D01*
X108362458Y-73148694D02*
X122211458Y-73148694D01*
X122211458Y-73148694D02*
X122211458Y-59299694D01*
X122211458Y-59299694D02*
X108362458Y-59299694D01*
X108362458Y-59299694D02*
X108362458Y-73148694D01*
X146462458Y-73148694D02*
X160311458Y-73148694D01*
X160311458Y-73148694D02*
X160311458Y-59299694D01*
X160311458Y-59299694D02*
X146462458Y-59299694D01*
X146462458Y-59299694D02*
X146462458Y-73148694D01*
X184562458Y-73148694D02*
X198411458Y-73148694D01*
X198411458Y-73148694D02*
X198411458Y-59299694D01*
X198411458Y-59299694D02*
X184562458Y-59299694D01*
X184562458Y-59299694D02*
X184562458Y-73148694D01*
X222662458Y-73148694D02*
X236511458Y-73148694D01*
X236511458Y-73148694D02*
X236511458Y-59299694D01*
X236511458Y-59299694D02*
X222662458Y-59299694D01*
X222662458Y-59299694D02*
X222662458Y-73148694D01*
X34543578Y-92198694D02*
X48392858Y-92198694D01*
X48392858Y-92198694D02*
X48392858Y-78349694D01*
X48392858Y-78349694D02*
X34543578Y-78349694D01*
X34543578Y-78349694D02*
X34543578Y-92198694D01*
X75023558Y-92198694D02*
X88873958Y-92198694D01*
X88873958Y-92198694D02*
X88873958Y-78349694D01*
X88873958Y-78349694D02*
X75023558Y-78349694D01*
X75023558Y-78349694D02*
X75023558Y-92198694D01*
X113123558Y-92198694D02*
X126973958Y-92198694D01*
X126973958Y-92198694D02*
X126973958Y-78349694D01*
X126973958Y-78349694D02*
X113123558Y-78349694D01*
X113123558Y-78349694D02*
X113123558Y-92198694D01*
X151223458Y-92198694D02*
X165074458Y-92198694D01*
X165074458Y-92198694D02*
X165074458Y-78349694D01*
X165074458Y-78349694D02*
X151223458Y-78349694D01*
X151223458Y-78349694D02*
X151223458Y-92198694D01*
X189323458Y-92198694D02*
X203174458Y-92198694D01*
X203174458Y-92198694D02*
X203174458Y-78349694D01*
X203174458Y-78349694D02*
X189323458Y-78349694D01*
X189323458Y-78349694D02*
X189323458Y-92198694D01*
X227423458Y-92198694D02*
X241274458Y-92198694D01*
X241274458Y-92198694D02*
X241274458Y-78349694D01*
X241274458Y-78349694D02*
X227423458Y-78349694D01*
X227423458Y-78349694D02*
X227423458Y-92198694D01*
X36923448Y-111248894D02*
X50774158Y-111248894D01*
X50774158Y-111248894D02*
X50774158Y-97399694D01*
X50774158Y-97399694D02*
X36923448Y-97399694D01*
X36923448Y-97399694D02*
X36923448Y-111248894D01*
X79787458Y-111248894D02*
X93636458Y-111248894D01*
X93636458Y-111248894D02*
X93636458Y-97399694D01*
X93636458Y-97399694D02*
X79787458Y-97399694D01*
X79787458Y-97399694D02*
X79787458Y-111248894D01*
X117886058Y-111248894D02*
X131736458Y-111248894D01*
X131736458Y-111248894D02*
X131736458Y-97399694D01*
X131736458Y-97399694D02*
X117886058Y-97399694D01*
X117886058Y-97399694D02*
X117886058Y-111248894D01*
X155986458Y-111248894D02*
X169836458Y-111248894D01*
X169836458Y-111248894D02*
X169836458Y-97399694D01*
X169836458Y-97399694D02*
X155986458Y-97399694D01*
X155986458Y-97399694D02*
X155986458Y-111248894D01*
X194087458Y-111248894D02*
X207936458Y-111248894D01*
X207936458Y-111248894D02*
X207936458Y-97399694D01*
X207936458Y-97399694D02*
X194087458Y-97399694D01*
X194087458Y-97399694D02*
X194087458Y-111248894D01*
X232187458Y-111248894D02*
X246036458Y-111248894D01*
X246036458Y-111248894D02*
X246036458Y-97399694D01*
X246036458Y-97399694D02*
X232187458Y-97399694D01*
X232187458Y-97399694D02*
X232187458Y-111248894D01*
X32162318Y-130298854D02*
X46011658Y-130298854D01*
X46011658Y-130298854D02*
X46011658Y-116449594D01*
X46011658Y-116449594D02*
X32162318Y-116449594D01*
X32162318Y-116449594D02*
X32162318Y-130298854D01*
X70262458Y-130298854D02*
X84111458Y-130298854D01*
X84111458Y-130298854D02*
X84111458Y-116449594D01*
X84111458Y-116449594D02*
X70262458Y-116449594D01*
X70262458Y-116449594D02*
X70262458Y-130298854D01*
X194087458Y-130298854D02*
X207936458Y-130298854D01*
X207936458Y-130298854D02*
X207936458Y-116449594D01*
X207936458Y-116449594D02*
X194087458Y-116449594D01*
X194087458Y-116449594D02*
X194087458Y-130298854D01*
X232187458Y-130298854D02*
X246036458Y-130298854D01*
X246036458Y-130298854D02*
X246036458Y-116449594D01*
X246036458Y-116449594D02*
X232187458Y-116449594D01*
X232187458Y-116449594D02*
X232187458Y-130298854D01*
X110743758Y-116449594D02*
X110743758Y-130298854D01*
X110743758Y-130298854D02*
X113717258Y-130298854D01*
X113717258Y-130298854D02*
X113717258Y-131268994D01*
X113717258Y-131268994D02*
X116867558Y-131268994D01*
X116867558Y-131268994D02*
X116867558Y-130298854D01*
X116867558Y-130298854D02*
X134117458Y-130298854D01*
X134117458Y-130298854D02*
X134117458Y-130068724D01*
X134117458Y-130068724D02*
X135148458Y-130068724D01*
X135148458Y-130068724D02*
X135148458Y-131268994D01*
X135148458Y-131268994D02*
X140667458Y-131268994D01*
X140667458Y-131268994D02*
X140667458Y-130068724D01*
X140667458Y-130068724D02*
X141698458Y-130068724D01*
X141698458Y-130068724D02*
X141698458Y-130298854D01*
X141698458Y-130298854D02*
X155549458Y-130298854D01*
X155549458Y-130298854D02*
X155549458Y-130068724D01*
X155549458Y-130068724D02*
X156579458Y-130068724D01*
X156579458Y-130068724D02*
X156579458Y-131268994D01*
X156579458Y-131268994D02*
X162099458Y-131268994D01*
X162099458Y-131268994D02*
X162099458Y-130068724D01*
X162099458Y-130068724D02*
X163129458Y-130068724D01*
X163129458Y-130068724D02*
X163129458Y-130298854D01*
X163129458Y-130298854D02*
X180379458Y-130298854D01*
X180379458Y-130298854D02*
X180379458Y-131268994D01*
X180379458Y-131268994D02*
X183530458Y-131268994D01*
X183530458Y-131268994D02*
X183530458Y-130298854D01*
X183530458Y-130298854D02*
X186505458Y-130298854D01*
X186505458Y-130298854D02*
X186505458Y-116449594D01*
X186505458Y-116449594D02*
X163129458Y-116449594D01*
X163129458Y-116449594D02*
X163129458Y-117918594D01*
X163129458Y-117918594D02*
X155549458Y-117918594D01*
X155549458Y-117918594D02*
X155549458Y-116449594D01*
X155549458Y-116449594D02*
X141698458Y-116449594D01*
X141698458Y-116449594D02*
X141698458Y-117918594D01*
X141698458Y-117918594D02*
X134117458Y-117918594D01*
X134117458Y-117918594D02*
X134117458Y-116449594D01*
X134117458Y-116449594D02*
X110743758Y-116449594D01*
X29487542Y-59124994D02*
G75*
G02*
X31987542Y-56624994I2500000J0D01*
G01*
X267762458Y-56624994D02*
X31987542Y-56624994D01*
X267762458Y-132975007D02*
X267762458Y-56624994D01*
X31987542Y-132975007D02*
X267762458Y-132975007D01*
X31987542Y-132975007D02*
G75*
G02*
X29487542Y-130475007I0J2500000D01*
G01*
X29487542Y-59124994D02*
X29487542Y-130475007D01*
X251237458Y-130298854D02*
X265086458Y-130298854D01*
X265086458Y-130298854D02*
X265086458Y-116449594D01*
X265086458Y-116449594D02*
X251237458Y-116449594D01*
X251237458Y-116449594D02*
X251237458Y-130298854D01*
X213137458Y-130298854D02*
X226986458Y-130298854D01*
X226986458Y-130298854D02*
X226986458Y-116449594D01*
X226986458Y-116449594D02*
X213137458Y-116449594D01*
X213137458Y-116449594D02*
X213137458Y-130298854D01*
X89312458Y-130298854D02*
X103161458Y-130298854D01*
X103161458Y-130298854D02*
X103161458Y-116449594D01*
X103161458Y-116449594D02*
X89312458Y-116449594D01*
X89312458Y-116449594D02*
X89312458Y-130298854D01*
X51212358Y-130298854D02*
X65061458Y-130298854D01*
X65061458Y-130298854D02*
X65061458Y-116449594D01*
X65061458Y-116449594D02*
X51212358Y-116449594D01*
X51212358Y-116449594D02*
X51212358Y-130298854D01*
X251237458Y-111248894D02*
X265086458Y-111248894D01*
X265086458Y-111248894D02*
X265086458Y-97399694D01*
X265086458Y-97399694D02*
X251237458Y-97399694D01*
X251237458Y-97399694D02*
X251237458Y-111248894D01*
X213137458Y-111248894D02*
X226986458Y-111248894D01*
X226986458Y-111248894D02*
X226986458Y-97399694D01*
X226986458Y-97399694D02*
X213137458Y-97399694D01*
X213137458Y-97399694D02*
X213137458Y-111248894D01*
X175036458Y-111248894D02*
X188886458Y-111248894D01*
X188886458Y-111248894D02*
X188886458Y-97399694D01*
X188886458Y-97399694D02*
X175036458Y-97399694D01*
X175036458Y-97399694D02*
X175036458Y-111248894D01*
X136936458Y-111248894D02*
X150786458Y-111248894D01*
X150786458Y-111248894D02*
X150786458Y-97399694D01*
X150786458Y-97399694D02*
X136936458Y-97399694D01*
X136936458Y-97399694D02*
X136936458Y-111248894D01*
X98837458Y-111248894D02*
X112686458Y-111248894D01*
X112686458Y-111248894D02*
X112686458Y-97399694D01*
X112686458Y-97399694D02*
X98837458Y-97399694D01*
X98837458Y-97399694D02*
X98837458Y-111248894D01*
X60737358Y-111248894D02*
X74586458Y-111248894D01*
X74586458Y-111248894D02*
X74586458Y-97399694D01*
X74586458Y-97399694D02*
X60737358Y-97399694D01*
X60737358Y-97399694D02*
X60737358Y-111248894D01*
X248854458Y-92198694D02*
X262705458Y-92198694D01*
X262705458Y-92198694D02*
X262705458Y-78349694D01*
X262705458Y-78349694D02*
X248854458Y-78349694D01*
X248854458Y-78349694D02*
X248854458Y-92198694D01*
X208373458Y-92198694D02*
X222224458Y-92198694D01*
X222224458Y-92198694D02*
X222224458Y-78349694D01*
X222224458Y-78349694D02*
X208373458Y-78349694D01*
X208373458Y-78349694D02*
X208373458Y-92198694D01*
X170273458Y-92198694D02*
X184124458Y-92198694D01*
X184124458Y-92198694D02*
X184124458Y-78349694D01*
X184124458Y-78349694D02*
X170273458Y-78349694D01*
X170273458Y-78349694D02*
X170273458Y-92198694D01*
X132173458Y-92198694D02*
X146024458Y-92198694D01*
X146024458Y-92198694D02*
X146024458Y-78349694D01*
X146024458Y-78349694D02*
X132173458Y-78349694D01*
X132173458Y-78349694D02*
X132173458Y-92198694D01*
X94073558Y-92198694D02*
X107923958Y-92198694D01*
X107923958Y-92198694D02*
X107923958Y-78349694D01*
X107923958Y-78349694D02*
X94073558Y-78349694D01*
X94073558Y-78349694D02*
X94073558Y-92198694D01*
X55973458Y-92198694D02*
X69823958Y-92198694D01*
X69823958Y-92198694D02*
X69823958Y-78349694D01*
X69823958Y-78349694D02*
X55973458Y-78349694D01*
X55973458Y-78349694D02*
X55973458Y-92198694D01*
X246473458Y-73148694D02*
X260324458Y-73148694D01*
X260324458Y-73148694D02*
X260324458Y-59299694D01*
X260324458Y-59299694D02*
X246473458Y-59299694D01*
X246473458Y-59299694D02*
X246473458Y-73148694D01*
X203612458Y-73148694D02*
X217461458Y-73148694D01*
X217461458Y-73148694D02*
X217461458Y-59299694D01*
X217461458Y-59299694D02*
X203612458Y-59299694D01*
X203612458Y-59299694D02*
X203612458Y-73148694D01*
X165512458Y-73148694D02*
X179361458Y-73148694D01*
X179361458Y-73148694D02*
X179361458Y-59299694D01*
X179361458Y-59299694D02*
X165512458Y-59299694D01*
X165512458Y-59299694D02*
X165512458Y-73148694D01*
X127412458Y-73148694D02*
X141261458Y-73148694D01*
X141261458Y-73148694D02*
X141261458Y-59299694D01*
X141261458Y-59299694D02*
X127412458Y-59299694D01*
X127412458Y-59299694D02*
X127412458Y-73148694D01*
X89312458Y-73148694D02*
X103161458Y-73148694D01*
X103161458Y-73148694D02*
X103161458Y-59299694D01*
X103161458Y-59299694D02*
X89312458Y-59299694D01*
X89312458Y-59299694D02*
X89312458Y-73148694D01*
X51212358Y-73148694D02*
X65061458Y-73148694D01*
X65061458Y-73148694D02*
X65061458Y-59299694D01*
X65061458Y-59299694D02*
X51212358Y-59299694D01*
X51212358Y-59299694D02*
X51212358Y-73148694D01*
X262621162Y-114717602D02*
G75*
G02*
X262618150Y-112218160I-1506J1249721D01*
G01*
X262621162Y-114717603D02*
X265102458Y-114735007D01*
X265119988Y-112235709D02*
G75*
G02*
X265102458Y-114735007I-8765J-1249649D01*
G01*
X265119989Y-112235709D02*
X262618150Y-112218160D01*
X262600558Y-76064354D02*
G75*
G02*
X262600558Y-73564994I0J1249680D01*
G01*
X262600558Y-76064354D02*
X265102458Y-76064354D01*
X265102458Y-73564993D02*
G75*
G02*
X265102458Y-76064355I0J-1249681D01*
G01*
X265102458Y-73564994D02*
X262600558Y-73564994D01*
X147350558Y-94864354D02*
G75*
G02*
X147350558Y-92364994I0J1249680D01*
G01*
X147350558Y-94864354D02*
X149852458Y-94864354D01*
X149852458Y-92364994D02*
G75*
G02*
X149852458Y-94864354I0J-1249680D01*
G01*
X149852458Y-92364994D02*
X147350558Y-92364994D01*
X32027542Y-76064354D02*
G75*
G02*
X32027542Y-73564994I0J1249680D01*
G01*
X32027542Y-76064354D02*
X34529442Y-76064354D01*
X34529442Y-73564994D02*
G75*
G02*
X34529442Y-76064354I0J-1249680D01*
G01*
X34529442Y-73564994D02*
X32027542Y-73564994D01*
X32027542Y-114675007D02*
G75*
G02*
X32027542Y-112175647I0J1249680D01*
G01*
X32027542Y-114675007D02*
X34529442Y-114675007D01*
X34529442Y-112175647D02*
G75*
G02*
X34529442Y-114675007I0J-1249680D01*
G01*
X34529442Y-112175647D02*
X32027542Y-112175647D01*
M02*
